<?xml version="1.0" standalone="no"?>
<!DOCTYPE svg PUBLIC "-//W3C//DTD SVG 20010904//EN"
 "http://www.w3.org/TR/2001/REC-SVG-20010904/DTD/svg10.dtd">
<svg version="1.0" xmlns="http://www.w3.org/2000/svg"
 width="2160.000000pt" height="2160.000000pt" viewBox="0 0 2160.000000 2160.000000"
 preserveAspectRatio="xMidYMid meet">

<g transform="translate(0.000000,2160.000000) scale(0.100000,-0.100000)"
fill="#000000" stroke="none">
<path d="M6525 20269 c-337 -30 -649 -240 -786 -526 -54 -114 -55 -117 -75
-193 -28 -107 -33 -157 -33 -330 0 -161 4 -198 29 -290 12 -44 12 -46 -24 -99
-31 -45 -36 -61 -36 -110 0 -122 72 -288 194 -450 14 -19 26 -44 26 -55 0 -27
43 -197 65 -256 35 -97 91 -188 173 -282 l49 -56 -19 -108 c-23 -131 -57 -256
-72 -266 -6 -4 -35 -8 -64 -8 -29 0 -72 -8 -95 -18 -68 -30 -119 -48 -177 -65
-173 -50 -200 -57 -217 -57 -49 0 -412 -104 -498 -142 -164 -73 -272 -183
-362 -368 -79 -163 -128 -349 -153 -575 -10 -93 -45 -376 -59 -485 -5 -41 -19
-154 -31 -250 -11 -96 -27 -218 -35 -270 -8 -52 -17 -120 -20 -150 -19 -184
-84 -574 -117 -705 -30 -120 -39 -156 -58 -220 -11 -38 -29 -101 -41 -140 -11
-38 -29 -97 -39 -130 -10 -33 -28 -91 -39 -130 -59 -194 -64 -212 -111 -410
-54 -228 -95 -492 -110 -700 -5 -71 -16 -139 -26 -165 -9 -25 -17 -65 -16 -90
3 -149 0 -324 -8 -381 -5 -36 -14 -151 -20 -255 -6 -104 -15 -218 -20 -254 -5
-36 -14 -141 -20 -235 -6 -93 -13 -181 -16 -193 -3 -13 -11 -81 -18 -150 -25
-229 -54 -425 -96 -657 -44 -238 -53 -324 -47 -464 6 -135 22 -214 62 -306 23
-55 61 -102 87 -111 12 -3 42 -22 68 -40 39 -28 57 -34 98 -34 42 0 52 4 66
25 9 13 16 29 16 34 0 5 4 21 10 36 9 24 11 25 33 10 22 -14 25 -14 41 4 15
17 17 34 10 149 -8 145 -3 178 26 187 11 4 33 19 49 33 25 23 30 37 35 97 7
80 18 149 51 325 13 69 30 163 39 210 8 47 18 162 21 255 14 407 51 682 127
960 64 236 98 341 143 450 18 41 52 135 60 162 3 12 26 43 51 69 41 44 44 51
44 102 0 34 7 71 19 96 11 23 40 91 64 151 25 61 52 124 61 140 9 17 16 35 16
40 0 6 16 49 35 95 19 46 35 88 35 94 0 5 9 27 19 50 11 23 29 75 41 116 12
41 26 85 31 98 40 101 86 493 96 820 3 116 9 212 13 212 4 0 15 -9 25 -20 40
-45 41 -449 0 -700 -22 -133 -55 -297 -71 -349 -8 -25 -14 -52 -14 -60 0 -16
-28 -117 -56 -201 -9 -25 -19 -58 -24 -75 -46 -158 -69 -226 -88 -250 -12 -15
-22 -36 -22 -47 0 -10 -9 -36 -20 -58 -11 -22 -20 -45 -20 -51 0 -7 -19 -29
-41 -50 l-42 -39 7 -56 c6 -57 -8 -118 -51 -221 -7 -17 -13 -39 -13 -49 0 -10
-9 -45 -19 -78 -30 -95 -57 -194 -76 -281 -9 -44 -25 -116 -35 -160 -41 -182
-51 -234 -60 -320 -5 -49 -14 -126 -20 -170 -40 -332 -37 -1258 6 -1610 35
-296 57 -428 100 -610 9 -38 22 -97 29 -130 19 -82 75 -294 93 -350 6 -16 42
-129 82 -250 40 -121 83 -249 97 -285 84 -219 125 -322 181 -450 10 -25 31
-74 46 -110 15 -36 31 -74 36 -85 5 -11 12 -31 15 -45 3 -14 12 -41 19 -60 20
-51 52 -181 70 -285 35 -195 46 -397 46 -880 1 -1139 42 -1548 215 -2150 8
-27 25 -88 39 -135 65 -228 110 -407 131 -524 14 -78 13 -81 -10 -131 -14 -28
-28 -67 -31 -86 -4 -19 -13 -43 -21 -54 -7 -11 -13 -26 -13 -35 0 -19 -112
-240 -150 -297 -15 -22 -31 -52 -35 -65 -4 -12 -13 -30 -20 -38 -7 -8 -25 -37
-39 -65 -15 -27 -35 -63 -46 -80 -37 -59 -98 -171 -124 -230 -32 -72 -47 -209
-31 -275 12 -50 78 -115 128 -125 18 -4 41 -13 52 -19 11 -7 34 -16 50 -20 17
-4 38 -15 47 -23 11 -9 41 -17 78 -19 38 -1 72 -9 88 -21 20 -13 47 -18 98
-18 53 0 77 -4 91 -17 47 -43 188 -37 265 10 100 62 209 234 272 427 15 44 31
94 37 110 6 17 17 55 24 85 7 30 18 73 24 95 5 22 19 83 31 135 11 52 25 109
30 125 43 152 60 303 70 630 5 176 14 356 20 400 5 44 19 163 30 265 11 102
27 244 36 315 8 72 19 173 24 225 5 52 13 140 19 195 42 406 46 486 46 1025
-1 399 -4 552 -14 600 -8 41 -15 186 -18 399 -5 292 -3 360 16 550 49 502 54
644 59 1556 2 479 8 859 12 845 22 -74 30 -172 35 -430 6 -301 18 -666 36
-1145 13 -338 6 -2104 -9 -2315 -6 -74 -16 -392 -23 -707 -14 -600 -8 -873 25
-1118 8 -60 20 -153 26 -205 20 -168 39 -323 50 -395 18 -132 41 -380 49 -540
11 -205 37 -444 62 -565 10 -52 19 -106 19 -120 0 -26 18 -87 51 -175 10 -28
19 -56 19 -63 0 -11 23 -62 52 -112 5 -8 15 -29 23 -46 20 -45 142 -172 186
-195 70 -35 134 -21 208 48 25 24 41 31 57 27 30 -8 92 13 127 43 16 13 49 28
73 34 41 10 104 64 104 88 0 5 17 11 38 15 21 3 47 15 57 26 13 14 31 20 60
20 44 0 62 13 100 74 38 62 37 119 -4 256 -22 73 -47 145 -61 175 -5 11 -19
47 -31 80 -30 84 -115 255 -168 340 -53 84 -97 187 -117 278 -18 76 -12 133
26 252 46 148 60 197 60 218 0 13 4 27 10 33 5 5 16 39 24 74 18 79 33 134 57
219 11 35 19 75 19 88 0 14 5 33 10 44 6 10 15 45 21 76 10 60 24 126 59 275
11 48 20 101 20 119 0 17 7 57 14 88 8 31 19 92 25 136 5 44 15 116 21 160 34
243 42 318 51 500 5 115 7 413 3 700 -6 489 -6 502 15 585 34 133 50 189 78
275 14 44 33 100 40 125 8 25 21 61 28 80 35 94 86 244 110 325 15 50 33 106
40 125 20 56 63 197 105 350 11 41 29 104 39 140 10 36 28 110 41 165 12 55
28 125 35 155 13 51 31 136 69 320 9 41 20 102 26 135 5 33 21 123 35 200 14
77 30 176 34 220 5 44 16 141 25 215 24 216 36 535 36 965 0 405 -22 1004 -40
1105 -5 30 -14 100 -20 155 -10 96 -29 210 -52 305 -5 25 -18 82 -28 126 -21
91 -62 217 -91 280 -10 22 -19 47 -19 55 0 8 -5 20 -11 26 -7 7 -4 20 10 44
41 66 13 134 -58 145 l-38 6 -7 95 c-6 90 -28 199 -62 303 -7 25 -45 140 -83
255 -109 330 -110 336 -135 590 -17 178 -9 451 14 465 15 9 30 -32 60 -165 5
-22 14 -53 20 -70 6 -16 18 -59 25 -95 23 -108 35 -163 50 -215 7 -27 23 -95
35 -150 12 -55 30 -129 40 -165 10 -36 26 -94 35 -130 10 -36 30 -103 46 -150
41 -125 45 -138 68 -215 55 -184 64 -212 77 -243 8 -18 14 -41 14 -52 0 -10 5
-30 11 -44 10 -21 8 -29 -10 -52 -43 -55 -20 -125 49 -145 39 -12 40 -13 74
-118 20 -58 48 -144 64 -191 66 -194 142 -447 142 -477 1 -10 7 -36 15 -58 8
-22 20 -97 26 -166 13 -138 3 -363 -25 -544 -48 -320 -68 -588 -52 -698 9 -59
47 -107 85 -107 40 0 102 58 130 121 12 30 30 67 38 84 8 16 19 54 24 84 9 60
34 96 48 72 11 -17 3 -48 -15 -55 -11 -4 -14 -37 -14 -161 0 -121 -5 -175 -21
-248 -24 -108 -31 -289 -11 -324 10 -17 21 -22 49 -21 26 1 40 -4 47 -17 35
-61 73 -75 155 -59 33 7 73 62 87 120 4 16 10 34 14 39 5 6 20 56 34 112 36
145 59 387 51 543 -9 179 -33 459 -40 470 -6 10 -41 265 -55 410 -5 52 -14
127 -20 167 -5 40 -14 154 -20 255 -5 101 -12 194 -15 208 -2 14 -9 143 -15
288 l-11 262 30 31 c41 41 42 89 3 128 -15 15 -33 30 -41 32 -11 4 -16 43 -22
169 -11 247 -58 627 -94 770 -7 30 -21 87 -30 125 -42 179 -58 238 -100 375
-14 47 -31 103 -36 125 -6 21 -14 44 -18 50 -5 5 -12 26 -16 45 -4 19 -14 48
-21 65 -7 16 -25 71 -40 120 -15 50 -34 101 -41 115 -7 14 -13 31 -13 39 0 15
-32 119 -55 181 -20 53 -47 141 -55 180 -4 19 -21 89 -38 155 -76 302 -88 385
-106 710 -8 143 -18 278 -21 300 -3 22 -10 87 -15 145 -9 116 -32 247 -62 355
-59 214 -174 414 -311 541 -77 71 -138 110 -272 170 -45 20 -164 52 -220 58
-27 4 -55 12 -63 19 -13 14 -8 39 27 156 6 19 18 91 27 160 13 105 14 141 4
221 -12 96 -53 252 -74 280 -6 8 -22 37 -36 64 -31 62 -188 222 -295 301 -63
47 -69 66 -35 105 11 13 20 30 20 39 0 9 6 25 13 36 21 32 54 134 67 210 17
98 13 182 -11 232 -18 37 -19 48 -9 106 18 99 7 426 -18 577 -31 186 -69 281
-157 393 -52 65 -165 163 -214 184 -19 8 -40 21 -48 29 -8 8 -23 14 -34 14
-11 0 -30 5 -42 12 -66 35 -329 79 -462 76 -38 0 -110 -4 -160 -9z m306 -70
c30 -6 81 -15 114 -19 71 -10 214 -59 265 -90 8 -5 30 -16 48 -24 50 -23 165
-146 208 -222 57 -101 81 -177 115 -353 6 -31 9 -150 7 -281 -3 -196 -5 -230
-21 -253 -25 -38 -52 -34 -99 15 -63 66 -149 213 -173 297 -7 25 -20 71 -29
101 -15 51 -15 58 1 93 15 35 15 39 0 54 -8 9 -35 20 -59 24 -96 18 -126 27
-195 61 -59 29 -74 33 -83 23 -18 -22 5 -51 62 -78 29 -14 68 -28 86 -32 26
-5 32 -11 32 -32 0 -23 -3 -25 -37 -20 -228 33 -419 138 -500 275 -18 30 -31
42 -48 42 -13 0 -27 -5 -30 -10 -8 -13 55 -117 92 -151 61 -57 178 -128 233
-143 32 -8 77 -42 68 -52 -4 -3 -33 -10 -65 -13 -62 -7 -130 4 -151 26 -7 7
-20 13 -28 13 -9 0 -60 44 -114 98 -76 76 -105 112 -130 165 -33 70 -49 79
-64 35 -7 -19 -4 -36 12 -69 31 -63 126 -173 195 -227 43 -32 26 -46 -47 -38
-76 8 -137 27 -247 78 -47 22 -94 39 -105 37 -29 -6 -29 -44 0 -70 30 -26 32
-48 10 -92 -70 -135 -322 -456 -371 -471 -19 -6 -23 -2 -29 21 -3 15 -12 48
-20 73 -19 58 -30 369 -16 465 37 255 232 517 467 629 22 10 56 26 75 35 145
69 428 109 571 80z m364 -876 c40 -113 71 -193 93 -234 19 -37 90 -140 104
-149 21 -16 28 -77 28 -248 -1 -288 -28 -513 -77 -622 -30 -69 -94 -195 -101
-200 -4 -3 -22 -27 -40 -55 -58 -91 -308 -315 -351 -315 -4 0 -35 -13 -67 -30
-84 -42 -112 -46 -192 -21 -69 21 -173 71 -204 98 -9 8 -30 22 -47 31 -195
107 -299 219 -377 407 -59 144 -94 396 -94 677 l0 198 73 81 c39 44 81 93 92
107 11 15 40 54 66 87 50 67 124 188 133 221 8 26 36 35 74 24 123 -39 152
-43 362 -47 207 -5 219 -4 325 22 61 15 114 31 120 36 5 5 19 9 31 9 18 0 26
-13 49 -77z m413 -506 c16 -25 15 -33 -7 -140 -13 -61 -29 -124 -37 -139 -8
-15 -14 -36 -14 -47 0 -18 -34 -51 -52 -51 -5 0 -8 74 -8 165 0 128 3 173 15
195 29 56 75 64 103 17z m-1829 -39 c5 -13 9 -70 10 -128 1 -58 4 -119 7 -136
4 -20 1 -34 -10 -43 -13 -11 -18 -6 -37 31 -35 68 -69 170 -69 209 0 70 78
123 99 67z m1767 -570 c17 -13 37 -29 45 -36 8 -7 30 -24 49 -37 199 -144 300
-349 300 -615 0 -162 -43 -339 -123 -510 -24 -51 -87 -162 -97 -170 -3 -3 -33
-39 -67 -80 -101 -124 -207 -213 -329 -274 -39 -20 -79 -45 -90 -57 -30 -33
-63 -43 -85 -23 -16 14 -19 14 -43 -1 -25 -17 -76 -110 -76 -140 0 -20 -42
-37 -52 -21 -4 6 -8 72 -8 147 0 109 4 149 20 199 11 34 20 69 20 77 0 8 6 27
14 41 8 15 25 50 38 77 25 55 120 199 150 229 11 10 45 52 76 95 30 42 59 79
64 82 15 10 49 82 70 149 25 79 26 162 3 232 -32 94 -57 163 -66 178 -42 70
-43 77 -24 119 10 22 26 48 36 57 18 16 20 16 39 -1 25 -22 55 -80 82 -158 19
-54 22 -83 21 -219 0 -118 3 -158 13 -162 24 -9 36 23 41 116 9 155 -8 260
-60 369 -25 52 -56 109 -70 127 -16 21 -23 41 -20 55 6 24 31 57 44 57 4 0 32
-24 61 -53 56 -57 128 -188 144 -262 7 -31 14 -41 33 -43 40 -6 45 11 22 75
-29 76 -62 145 -78 161 -7 7 -13 20 -13 28 0 8 -38 53 -85 100 -47 48 -85 90
-85 94 0 10 18 18 41 19 8 1 29 -9 45 -21z m-275 -488 c10 -6 19 -15 19 -21 0
-6 7 -25 15 -42 61 -135 70 -215 33 -304 -12 -29 -25 -53 -28 -53 -17 0 -39
41 -55 100 -17 67 -32 286 -22 314 7 19 12 19 38 6z m-127 -142 c19 -102 36
-208 36 -222 0 -21 47 -123 61 -131 19 -12 8 -41 -32 -85 -63 -70 -169 -209
-179 -235 -5 -13 -14 -26 -19 -30 -6 -3 -11 -14 -11 -23 0 -9 -7 -30 -16 -47
-9 -16 -29 -72 -46 -122 -29 -91 -30 -93 -69 -105 -72 -21 -155 -126 -118
-148 8 -6 30 8 67 41 29 27 58 47 63 43 5 -3 9 -56 9 -117 0 -130 36 -302 67
-325 36 -26 66 -11 95 48 15 30 27 65 27 76 1 36 39 74 72 74 23 0 45 13 87
53 66 61 116 97 134 97 6 0 29 12 50 26 29 20 41 24 51 15 19 -15 34 -72 42
-156 4 -38 13 -95 21 -125 8 -30 14 -73 14 -96 0 -23 6 -60 14 -82 8 -22 17
-62 21 -89 3 -26 13 -87 22 -135 14 -80 14 -91 -1 -137 -9 -27 -16 -55 -16
-62 0 -24 -101 -229 -164 -332 -22 -37 -50 -83 -61 -101 -11 -19 -36 -59 -55
-91 -19 -31 -41 -69 -49 -83 -8 -15 -26 -45 -40 -67 -13 -22 -38 -65 -54 -95
-16 -30 -35 -62 -41 -70 -7 -8 -23 -37 -37 -63 -13 -26 -34 -55 -47 -63 -21
-14 -26 -13 -66 17 -24 17 -52 29 -62 27 -33 -6 -22 -41 24 -71 53 -36 64 -56
49 -88 l-12 -24 -199 2 -199 1 -23 28 c-13 16 -23 34 -24 41 0 17 39 53 78 69
33 15 40 32 20 52 -13 13 -69 -7 -100 -35 -30 -27 -60 -9 -98 58 -43 75 -47
82 -85 139 -16 25 -34 52 -40 61 -5 9 -17 27 -26 40 -9 13 -38 58 -64 99 -26
41 -58 91 -71 111 -13 19 -24 38 -24 41 0 3 -24 41 -53 84 -93 140 -197 331
-197 364 0 6 -9 36 -20 67 -24 69 -27 224 -6 299 8 27 17 77 21 112 3 34 13
81 21 103 7 23 14 58 14 78 0 20 9 68 20 106 11 38 20 86 20 106 0 20 6 54 14
75 7 22 16 69 20 105 3 37 13 89 21 115 8 27 15 69 15 94 0 25 9 78 20 119 11
41 20 87 20 102 0 15 4 31 10 34 16 10 57 98 64 140 4 22 14 59 22 83 8 23 14
65 14 92 0 59 14 100 34 100 8 0 32 -12 53 -26 55 -37 269 -144 323 -160 127
-39 300 14 438 135 62 53 113 91 124 91 4 0 10 -10 12 -22z m-1160 -449 c12
-18 12 -27 2 -58 -7 -20 -16 -70 -19 -112 -4 -41 -13 -92 -22 -112 -8 -20 -15
-58 -15 -85 0 -27 -6 -71 -14 -98 -8 -27 -17 -76 -21 -109 -3 -33 -12 -87 -20
-120 -7 -33 -18 -85 -24 -115 -5 -30 -14 -73 -19 -95 -48 -192 -53 -222 -52
-365 1 -104 5 -156 16 -185 8 -22 19 -51 23 -65 20 -62 151 -314 171 -330 4
-3 20 -27 35 -55 16 -27 43 -70 60 -95 17 -25 34 -52 38 -60 4 -8 25 -42 47
-75 22 -33 44 -70 49 -82 6 -12 26 -44 45 -71 20 -27 36 -52 36 -55 0 -7 160
-246 189 -283 31 -39 26 -52 -26 -75 -27 -12 -68 -31 -93 -42 -25 -11 -148
-70 -275 -132 -126 -62 -243 -118 -260 -124 -97 -36 -198 -54 -323 -58 -119
-5 -140 -3 -200 17 -37 12 -83 32 -102 43 -60 36 -155 143 -189 214 -30 61
-42 95 -74 218 -5 22 -10 150 -10 290 0 208 3 255 16 280 16 30 262 276 510
508 140 132 194 203 217 286 6 22 14 43 19 46 5 3 12 29 16 58 3 28 12 72 20
97 8 25 17 69 20 99 4 30 14 69 21 87 8 18 14 47 14 64 0 17 6 43 14 58 7 15
17 52 21 82 3 30 12 75 20 100 7 25 17 77 20 115 4 39 12 78 17 89 6 10 14 60
18 110 9 102 39 216 57 216 6 0 19 -9 27 -21z m-123 -14 c8 -8 -10 -177 -26
-242 -8 -34 -15 -77 -15 -96 0 -18 -7 -58 -16 -88 -9 -30 -20 -79 -24 -109 -7
-56 -18 -104 -50 -220 -10 -36 -23 -87 -28 -115 -26 -131 -36 -175 -55 -240
-12 -38 -27 -77 -33 -85 -6 -8 -14 -27 -18 -41 -3 -15 -41 -62 -84 -105 -168
-169 -511 -494 -521 -494 -20 0 -16 69 10 172 23 90 22 161 -2 166 -27 5 -47
-24 -58 -86 -6 -31 -17 -88 -25 -127 -8 -38 -20 -106 -27 -150 -6 -44 -15
-102 -19 -130 -12 -69 -11 -511 0 -560 5 -22 14 -65 21 -95 11 -55 17 -71 60
-164 21 -47 22 -57 21 -376 0 -242 -5 -352 -16 -421 -8 -52 -18 -114 -21 -139
-4 -25 -13 -70 -20 -100 -48 -196 -61 -243 -83 -310 -30 -93 -85 -243 -105
-290 -8 -19 -32 -75 -52 -125 -21 -49 -46 -108 -56 -130 -10 -22 -27 -62 -37
-90 -16 -39 -27 -52 -52 -60 -63 -21 -86 -79 -55 -138 13 -25 13 -32 0 -57 -8
-16 -15 -34 -15 -41 0 -6 -8 -30 -19 -53 -17 -38 -23 -55 -53 -141 -6 -16 -17
-46 -24 -65 -40 -111 -107 -337 -128 -435 -7 -33 -18 -78 -24 -100 -5 -22 -13
-67 -17 -100 -4 -33 -13 -87 -21 -120 -7 -33 -14 -87 -14 -120 0 -56 -18 -314
-40 -590 -5 -66 -15 -145 -21 -175 -24 -124 -49 -261 -66 -358 -22 -128 -26
-134 -56 -102 -48 52 -91 213 -103 382 -3 54 -9 100 -13 103 -4 2 -17 1 -29
-2 -23 -6 -42 -53 -42 -108 0 -16 -7 -39 -15 -49 -8 -11 -15 -31 -15 -45 -1
-14 -8 -44 -16 -66 -8 -22 -19 -67 -24 -100 -5 -33 -16 -93 -25 -134 -11 -53
-15 -118 -14 -228 1 -85 -1 -156 -3 -159 -12 -11 -57 86 -77 163 -36 142 -29
282 30 593 6 30 17 100 25 155 7 55 18 118 24 140 5 22 10 59 10 81 0 23 9 93
20 155 11 63 20 137 20 166 0 29 7 96 15 150 8 54 19 172 24 263 6 91 15 208
21 260 5 52 14 167 20 255 5 88 15 222 21 298 12 135 13 138 40 154 56 33 62
113 12 153 l-25 20 11 142 c11 129 19 197 50 393 20 131 34 202 47 250 8 28
18 70 23 95 14 66 62 239 106 380 74 236 132 437 145 500 5 25 16 68 24 95 15
48 25 99 47 235 5 36 16 97 24 135 7 39 16 99 20 135 3 36 12 99 20 140 8 41
18 113 24 160 6 47 15 123 21 170 33 263 41 324 50 410 5 52 14 119 20 149 5
29 10 75 10 101 0 25 9 96 20 156 11 60 20 127 20 150 0 22 6 63 14 90 8 27
18 72 22 99 3 28 13 65 20 84 8 18 14 42 14 52 0 11 9 36 20 56 11 21 20 45
20 53 0 9 4 20 9 26 6 5 24 36 42 69 50 96 142 200 207 235 20 12 55 31 77 43
22 12 74 33 115 46 41 13 91 30 110 37 20 6 58 15 85 20 27 4 64 13 82 20 18
8 44 14 58 14 14 0 60 10 103 21 42 12 109 30 147 41 39 10 84 25 100 33 30
14 68 19 76 10z m2164 -135 c107 -19 248 -71 323 -121 24 -16 47 -29 51 -29
17 0 141 -133 184 -198 66 -97 147 -264 147 -301 0 -9 7 -29 15 -45 8 -15 15
-35 15 -44 0 -9 9 -55 19 -102 26 -111 49 -351 61 -623 6 -120 14 -237 19
-260 5 -23 12 -76 16 -117 3 -41 12 -95 20 -120 8 -25 18 -72 24 -105 13 -74
42 -195 70 -295 12 -41 26 -93 31 -115 6 -22 16 -56 24 -75 7 -19 23 -69 36
-110 13 -41 28 -91 36 -110 19 -54 44 -131 56 -175 6 -22 14 -44 18 -50 4 -5
19 -50 34 -100 15 -49 33 -106 40 -125 8 -19 19 -55 26 -80 6 -25 21 -76 32
-115 11 -38 26 -95 33 -125 7 -30 17 -73 23 -95 33 -122 67 -310 87 -470 8
-66 19 -142 25 -168 5 -26 10 -76 10 -110 0 -34 7 -125 15 -201 12 -121 12
-143 -1 -167 -19 -39 -18 -78 6 -114 17 -25 20 -48 21 -140 0 -60 4 -159 9
-220 4 -60 13 -200 19 -310 12 -222 34 -455 57 -615 8 -58 19 -139 23 -180 5
-41 15 -118 24 -170 38 -234 57 -581 37 -713 -5 -39 -15 -109 -21 -155 -7 -57
-18 -94 -34 -117 l-23 -34 -4 187 c-4 162 -8 195 -28 247 -40 109 -74 179
-143 300 -36 62 -38 70 -29 107 12 48 1 88 -25 88 -31 0 -40 -13 -51 -70 -24
-127 -35 -178 -53 -238 -10 -34 -19 -68 -19 -75 0 -7 -9 -30 -20 -52 -11 -22
-20 -46 -20 -55 0 -24 -47 -64 -56 -48 -13 21 -6 367 10 458 8 47 17 112 21
145 3 33 13 98 22 145 24 131 24 509 0 615 -30 131 -57 238 -68 270 -6 17 -15
48 -20 70 -12 46 -79 248 -140 415 -23 64 -44 144 -48 180 -4 49 -13 74 -34
102 -16 20 -33 54 -38 75 -5 21 -16 54 -23 73 -14 37 -41 126 -77 250 -12 41
-27 90 -35 108 -8 18 -14 40 -14 50 0 9 -8 39 -19 67 -10 27 -29 84 -41 125
-12 41 -29 90 -36 108 -8 18 -14 43 -14 55 0 12 -8 54 -19 92 -31 114 -41 156
-56 238 -8 43 -17 83 -20 87 -3 5 -10 35 -16 67 -6 32 -17 83 -25 113 -35 125
-56 197 -69 230 -36 94 -35 154 4 212 17 25 38 64 47 85 8 21 19 47 24 58 5
11 19 65 30 119 23 112 28 380 9 496 -6 36 -14 99 -18 140 -5 41 -15 102 -24
135 -8 33 -20 83 -26 110 -45 220 -137 471 -179 494 -43 23 -56 -38 -23 -111
18 -39 39 -95 76 -198 18 -52 35 -116 51 -198 7 -40 17 -80 22 -90 5 -9 7 -23
5 -29 -7 -21 -41 -15 -54 9 -6 11 -46 53 -88 92 -107 99 -280 273 -321 324
-37 45 -83 119 -100 162 -6 14 -17 39 -25 55 -22 47 -46 125 -56 184 -5 29
-14 62 -19 72 -6 10 -13 46 -16 81 -3 35 -12 86 -19 113 -7 28 -16 78 -20 112
-3 35 -13 79 -20 98 -8 19 -15 58 -15 86 0 48 4 57 54 118 29 36 65 86 80 111
98 164 105 173 135 166 14 -3 53 -11 86 -16z m-400 -457 c3 -27 12 -73 20
-104 8 -30 15 -69 15 -86 0 -16 7 -52 16 -79 8 -27 19 -76 24 -109 14 -99 57
-255 98 -350 51 -122 109 -193 370 -455 139 -140 263 -273 275 -295 21 -38 22
-52 22 -300 0 -222 -3 -269 -18 -320 -50 -165 -147 -282 -268 -323 -77 -26
-210 -37 -299 -24 -84 12 -190 41 -215 58 -11 8 -26 14 -34 14 -15 0 -142 62
-216 106 -22 13 -49 28 -60 33 -11 5 -59 31 -107 59 -47 28 -97 53 -110 57
-12 4 -40 16 -60 26 -43 22 -49 46 -18 74 11 10 20 26 20 36 0 10 4 20 10 24
5 3 23 34 41 68 17 34 46 84 63 112 18 27 43 70 56 95 13 25 37 68 54 95 17
28 37 59 43 70 7 11 27 44 45 73 56 90 77 126 90 152 7 14 33 61 58 105 130
233 156 354 110 526 -11 41 -20 91 -20 112 0 21 -5 47 -10 57 -6 11 -17 63
-24 117 -8 54 -19 121 -24 148 -6 28 -15 88 -21 133 -12 99 1 142 44 142 21 0
24 -6 30 -47z m-638 -2146 c18 -9 39 -17 48 -17 21 0 228 -104 260 -130 43
-36 276 -149 360 -174 201 -62 361 -78 475 -48 117 31 111 45 104 -241 -7
-238 2 -398 28 -487 5 -19 16 -60 23 -90 7 -30 18 -68 24 -85 12 -35 36 -111
56 -175 7 -25 19 -61 25 -80 27 -81 32 -97 41 -135 5 -22 14 -49 19 -60 10
-22 36 -116 50 -180 15 -72 22 -239 12 -306 -12 -80 -49 -161 -103 -226 -45
-55 -48 -86 -8 -91 20 -2 36 6 63 34 38 39 83 112 92 151 4 16 11 22 21 19 8
-3 18 -6 22 -6 4 0 20 -33 35 -72 15 -40 33 -86 40 -103 20 -46 48 -136 56
-175 4 -19 15 -61 23 -93 18 -64 11 -102 -21 -115 -9 -4 -42 -26 -72 -48 -52
-39 -124 -81 -250 -145 -30 -15 -62 -30 -70 -33 -8 -3 -22 -10 -30 -16 -30
-19 -174 -81 -202 -87 -16 -3 -46 -14 -66 -24 -20 -11 -43 -19 -52 -19 -8 0
-24 -7 -34 -15 -11 -8 -31 -15 -45 -15 -14 0 -48 -9 -76 -19 -59 -22 -114 -37
-210 -56 -38 -8 -86 -19 -105 -25 -19 -5 -52 -10 -72 -10 -20 0 -63 -7 -95
-15 -154 -42 -848 -41 -1063 0 -47 9 -110 21 -140 27 -115 21 -187 36 -235 48
-129 31 -215 54 -268 71 -31 10 -65 19 -75 19 -9 0 -26 7 -36 15 -11 8 -27 15
-35 15 -9 1 -34 9 -56 20 -22 11 -47 19 -56 20 -9 0 -22 7 -29 15 -7 8 -17 15
-22 15 -11 0 -126 56 -185 90 -10 6 -29 16 -43 22 -14 7 -45 26 -70 43 -25 16
-55 35 -67 41 -28 15 -174 136 -238 196 -47 44 -50 50 -48 93 1 25 8 64 16 88
8 23 24 76 37 117 43 143 53 165 81 168 25 3 27 0 33 -49 13 -98 79 -222 177
-332 33 -38 65 -47 87 -25 21 21 13 44 -33 94 -25 27 -52 61 -60 76 -8 15 -28
46 -44 70 -15 24 -34 61 -41 83 -7 22 -16 44 -21 50 -16 16 -10 251 7 323 22
87 52 193 74 262 51 157 118 411 131 500 4 30 12 69 17 86 5 17 13 60 17 95 3
35 13 97 21 138 10 49 16 158 19 320 4 283 -3 267 103 235 34 -10 105 -19 177
-22 104 -3 133 -1 220 21 90 23 252 81 298 107 26 15 337 169 372 185 17 7 48
21 70 30 22 10 56 22 75 26 19 4 58 15 85 23 72 22 337 17 382 -7z m-2301
-2785 c6 -4 50 -42 97 -85 47 -43 107 -92 134 -109 26 -17 50 -34 53 -37 7 -9
203 -122 260 -149 145 -69 316 -136 425 -164 22 -6 57 -17 78 -24 20 -8 46
-14 57 -14 11 0 46 -9 77 -20 32 -11 74 -20 94 -20 20 0 54 -6 75 -14 22 -7
73 -16 114 -20 41 -4 104 -13 140 -21 36 -7 130 -19 210 -25 80 -6 179 -16
220 -20 112 -13 233 -11 346 5 55 8 143 17 195 20 52 4 114 13 139 20 25 7 73
16 107 20 35 3 79 13 98 20 19 8 51 15 72 15 21 0 50 7 66 15 15 8 53 19 84
24 30 6 61 15 67 20 6 4 29 12 50 16 22 3 49 13 60 21 11 8 29 14 39 14 23 0
97 29 228 89 25 12 52 21 60 21 8 0 25 9 39 20 14 11 33 20 42 20 9 0 20 5 24
11 3 6 21 18 38 26 48 23 87 45 139 81 26 17 51 32 54 32 3 0 22 14 43 30 21
17 45 30 54 30 20 0 36 -39 36 -90 0 -38 -2 -41 -67 -78 -38 -22 -104 -59
-148 -83 -44 -23 -82 -46 -85 -50 -3 -4 -18 -11 -33 -14 -15 -4 -29 -11 -32
-15 -5 -7 -161 -101 -298 -179 -23 -13 -64 -38 -92 -56 -27 -17 -72 -45 -100
-61 -27 -15 -71 -43 -97 -61 -26 -18 -50 -33 -52 -33 -2 0 -59 -37 -126 -82
-67 -46 -146 -99 -176 -118 -110 -73 -248 -172 -364 -261 -93 -72 -79 -60
-237 -202 -75 -67 -146 -122 -163 -127 -34 -10 -52 -2 -109 46 -14 12 -64 53
-111 90 -47 37 -89 74 -93 81 -4 7 -21 20 -38 28 -16 9 -53 37 -82 63 -29 26
-72 63 -96 82 -66 52 -185 153 -196 166 -5 6 -37 31 -69 55 -33 24 -74 57 -92
73 -18 16 -62 49 -98 75 -35 25 -102 73 -148 106 -93 66 -209 145 -214 145 -2
0 -40 25 -84 55 -44 30 -84 55 -88 55 -4 0 -30 15 -57 33 -28 17 -61 38 -75
45 -14 7 -43 23 -65 36 -70 42 -339 174 -368 182 -16 3 -32 16 -37 28 -9 25 1
93 25 163 23 67 27 71 51 55z m-47 -306 c7 -8 24 -17 39 -21 27 -6 294 -138
364 -179 20 -11 62 -36 95 -55 55 -32 171 -105 222 -140 13 -9 31 -21 40 -26
39 -25 76 -50 81 -55 3 -3 30 -22 60 -42 30 -20 66 -47 80 -60 14 -13 42 -35
63 -47 21 -13 44 -29 51 -37 8 -7 45 -37 83 -66 127 -97 318 -251 333 -268 8
-9 60 -53 115 -97 55 -44 114 -93 130 -109 17 -16 64 -55 105 -88 41 -32 92
-77 113 -99 35 -38 37 -43 37 -106 -6 -890 -23 -2251 -29 -2326 -5 -55 -14
-174 -20 -265 -6 -91 -18 -253 -26 -360 -26 -355 -26 -495 5 -815 13 -142 14
-1246 0 -1385 -5 -58 -14 -168 -20 -245 -10 -138 -19 -222 -59 -505 -12 -80
-21 -165 -21 -190 0 -25 -6 -81 -14 -126 -8 -44 -20 -161 -26 -260 -6 -98 -15
-219 -20 -269 -5 -49 -10 -165 -10 -258 0 -122 -5 -195 -19 -270 -11 -56 -25
-133 -31 -172 -28 -170 -39 -225 -49 -244 -6 -11 -11 -32 -11 -48 -1 -15 -8
-46 -16 -68 -9 -22 -20 -58 -24 -80 -11 -54 -48 -157 -60 -169 -6 -6 -10 -17
-10 -25 0 -9 -14 -41 -30 -71 -16 -30 -34 -66 -40 -79 -21 -47 -113 -152 -168
-191 -73 -52 -100 -52 -152 1 -44 45 -48 62 -25 105 18 35 20 101 3 107 -7 2
-23 -1 -36 -6 -24 -11 -52 -86 -52 -138 0 -54 -66 -66 -100 -18 -19 25 -21 40
-17 87 3 31 8 67 12 79 6 18 2 23 -21 29 -22 6 -32 2 -51 -20 -19 -22 -23 -39
-23 -91 0 -69 -8 -82 -40 -65 -16 9 -20 21 -20 64 0 61 -19 88 -45 66 -8 -7
-15 -18 -15 -25 0 -6 -9 -20 -21 -31 -17 -16 -22 -16 -30 -4 -5 8 -8 32 -7 54
2 29 -2 42 -15 50 -16 9 -23 6 -46 -21 -15 -18 -31 -33 -34 -33 -14 0 -47 65
-47 91 0 50 78 239 124 299 6 8 18 26 25 40 8 14 56 95 107 181 97 166 194
353 214 414 7 20 18 49 26 63 8 15 14 37 14 49 0 13 9 46 20 75 12 33 20 77
20 117 0 59 -28 206 -52 276 -6 17 -16 55 -23 86 -7 30 -17 65 -24 77 -6 11
-11 32 -11 47 0 14 -9 43 -20 65 -11 22 -20 49 -20 60 0 12 -5 31 -11 43 -15
27 -65 219 -94 357 -107 518 -126 774 -141 1990 -6 498 -14 659 -40 765 -17
71 -52 192 -75 255 -7 19 -21 60 -32 90 -10 30 -25 69 -33 85 -7 17 -17 46
-22 65 -9 30 -44 123 -87 225 -7 17 -22 57 -34 90 -13 33 -31 80 -41 105 -10
25 -26 65 -35 90 -9 25 -25 65 -35 90 -9 25 -23 61 -30 80 -6 19 -30 85 -52
145 -21 61 -44 126 -49 145 -6 19 -16 53 -24 75 -7 22 -20 65 -29 95 -55 194
-65 233 -88 345 -5 28 -16 79 -24 115 -7 36 -18 101 -24 145 -14 114 -28 224
-46 345 -8 58 -19 175 -24 260 -5 85 -15 225 -21 310 -9 135 -6 549 5 700 2
25 9 117 15 205 6 88 17 194 25 235 8 41 15 95 16 120 1 46 32 198 44 219 10
15 41 14 55 -3z m4169 -69 c34 -40 57 -550 57 -1232 0 -610 -4 -696 -55 -1125
-11 -95 -23 -168 -56 -335 -9 -49 -20 -112 -24 -140 -3 -27 -14 -81 -23 -120
-9 -38 -26 -115 -37 -170 -12 -55 -28 -120 -36 -145 -8 -25 -14 -54 -14 -66 0
-11 -8 -50 -19 -85 -21 -75 -37 -132 -56 -209 -8 -30 -23 -86 -35 -125 -11
-38 -27 -93 -34 -122 -8 -28 -19 -60 -24 -70 -5 -10 -13 -38 -17 -63 -4 -25
-10 -49 -14 -55 -4 -5 -20 -50 -35 -100 -16 -49 -34 -106 -41 -125 -15 -39
-42 -120 -55 -165 -12 -42 -49 -146 -59 -170 -15 -33 -42 -118 -50 -156 -4
-19 -15 -57 -24 -85 -60 -186 -68 -320 -41 -727 10 -144 14 -298 11 -382 -8
-195 -34 -562 -41 -574 -4 -6 -11 -61 -16 -123 -6 -62 -15 -133 -20 -158 -6
-25 -17 -92 -25 -150 -22 -151 -34 -229 -47 -280 -6 -25 -16 -76 -24 -115 -19
-102 -34 -170 -54 -255 -22 -89 -37 -155 -55 -230 -7 -30 -18 -71 -25 -90 -7
-19 -20 -57 -30 -85 -9 -27 -22 -66 -29 -85 -7 -19 -19 -57 -26 -85 -7 -27
-19 -63 -25 -80 -9 -20 -14 -84 -14 -185 l-1 -155 63 -125 c34 -69 92 -181
128 -250 77 -149 144 -296 144 -319 0 -9 6 -26 14 -37 8 -11 18 -38 22 -60 4
-21 13 -54 21 -72 17 -40 9 -145 -14 -180 -11 -19 -17 -21 -29 -11 -8 6 -14
25 -14 40 0 22 -6 32 -26 39 -35 14 -41 8 -49 -51 -5 -39 -11 -49 -23 -47 -9
2 -21 13 -27 25 -36 71 -65 60 -65 -25 0 -38 -6 -65 -21 -88 -25 -41 -37 -36
-45 16 -8 46 -24 63 -56 58 -21 -3 -23 -7 -20 -61 4 -74 -25 -130 -66 -125
-24 3 -27 9 -37 68 -11 67 -38 120 -61 120 -22 0 -26 -19 -25 -119 2 -95 1
-99 -27 -129 -41 -44 -75 -50 -125 -22 -23 13 -52 32 -64 43 -23 20 -103 132
-103 145 -1 4 -9 25 -20 47 -11 22 -19 46 -20 53 0 8 -6 28 -14 45 -14 30 -19
48 -46 172 -6 28 -18 77 -26 110 -8 33 -19 96 -24 140 -5 44 -13 103 -19 130
-5 28 -12 104 -16 170 -3 66 -11 159 -16 207 -6 47 -14 160 -19 250 -8 179
-34 424 -55 533 -29 149 -55 401 -67 650 -19 384 -19 369 24 1400 27 619 12
2650 -23 3330 -5 105 -14 357 -19 560 -8 292 -14 396 -31 495 -15 91 -18 132
-10 151 17 47 514 469 551 469 5 0 22 12 37 26 15 15 53 43 83 63 31 20 62 42
70 49 8 6 51 36 96 64 44 29 88 58 96 63 8 6 34 23 58 39 24 15 63 39 88 52
25 13 52 30 60 36 18 15 164 105 242 148 57 32 71 40 220 130 118 71 148 89
207 123 26 15 55 32 63 37 8 6 29 16 46 24 17 8 35 19 38 25 10 15 51 14 64
-2z m756 -1657 c-5 -76 -14 -133 -32 -195 -12 -42 -21 61 -15 177 5 96 9 118
22 120 26 6 30 -11 25 -102z m-5649 10 c-3 -14 -9 -49 -12 -77 -3 -29 -9 -53
-13 -53 -11 0 -23 154 -15 181 l8 23 19 -24 c13 -17 18 -32 13 -50z m-125 -33
c0 -35 6 -87 14 -117 19 -73 30 -183 22 -215 -5 -20 -12 -26 -29 -23 -21 3
-22 9 -29 128 -11 194 -12 233 -4 268 12 50 26 28 26 -41z"/>
<path d="M6747 19853 c-16 -15 -6 -62 15 -77 30 -21 45 -20 53 4 11 33 -47 95
-68 73z"/>
<path d="M7050 18983 c-106 -20 -162 -47 -158 -76 4 -27 31 -26 101 3 34 15
74 21 142 23 109 3 130 14 89 46 -31 24 -63 25 -174 4z"/>
<path d="M6071 18970 c-38 -9 -87 -53 -77 -69 10 -16 31 -14 73 9 52 28 164
28 215 0 30 -16 43 -18 65 -9 l27 10 -26 26 c-15 14 -44 29 -69 34 -54 10
-162 10 -208 -1z"/>
<path d="M6995 18801 c-64 -21 -102 -47 -120 -81 -22 -43 11 -57 49 -21 35 32
63 35 77 9 16 -30 50 -57 72 -58 31 0 77 29 77 49 0 51 30 65 80 36 39 -22 60
-19 60 10 0 21 -9 29 -56 50 -67 30 -161 32 -239 6z"/>
<path d="M6160 18791 c-54 -13 -111 -47 -126 -76 -11 -22 -11 -26 8 -36 16 -9
24 -7 41 9 39 34 55 34 88 -2 40 -44 69 -49 108 -19 17 14 31 31 31 38 0 24
19 27 65 10 84 -32 105 9 26 50 -54 27 -178 40 -241 26z"/>
<path d="M6553 18618 c-4 -7 -8 -60 -9 -118 0 -58 -4 -121 -9 -141 -9 -46 4
-55 39 -28 26 20 26 23 26 144 0 68 -3 130 -6 139 -7 19 -30 21 -41 4z"/>
<path d="M6809 18202 l-24 -37 -123 -2 c-111 -1 -124 1 -135 18 -12 20 -52 26
-62 9 -3 -5 2 -23 11 -39 21 -35 39 -39 203 -40 113 0 144 7 168 38 17 21 16
66 0 80 -11 8 -19 3 -38 -27z"/>
<path d="M6640 17928 c-25 -5 -69 -6 -97 -3 -50 5 -53 4 -59 -21 -4 -17 -2
-29 7 -36 19 -13 192 -2 258 16 59 16 77 28 67 45 -8 13 -112 13 -176 -1z"/>
<path d="M6643 17801 c-67 -7 -78 -12 -70 -36 5 -12 23 -15 80 -15 80 0 103
11 86 42 -5 10 -15 17 -22 16 -7 0 -40 -4 -74 -7z"/>
<path d="M7467 17223 c-24 -27 -32 -87 -13 -102 12 -10 19 -6 42 28 40 61 16
123 -29 74z"/>
<path d="M6180 16640 c-8 -5 -12 -12 -8 -15 9 -10 140 -55 158 -55 10 0 29 -9
43 -20 14 -11 32 -20 40 -20 8 0 49 -32 91 -71 41 -39 80 -68 86 -64 18 11 10
59 -13 80 -59 55 -117 95 -172 119 -33 15 -72 34 -87 42 -29 16 -115 19 -138
4z"/>
<path d="M5240 14587 c0 -29 33 -61 83 -82 42 -17 57 -13 57 16 0 12 -10 23
-27 30 -14 5 -37 21 -49 34 -30 33 -64 33 -64 2z"/>
<path d="M4459 13514 c-11 -14 -10 -19 6 -33 23 -20 58 -68 68 -94 9 -25 41
-17 45 11 5 31 -44 111 -74 123 -32 11 -29 12 -45 -7z"/>
<path d="M4034 12260 c-29 -11 -54 -49 -54 -78 0 -30 25 -78 45 -86 27 -10 79
-6 96 7 43 33 48 106 11 141 -23 20 -70 28 -98 16z"/>
<path d="M4274 12260 c-29 -11 -54 -49 -54 -78 0 -30 25 -78 45 -86 27 -10 79
-6 96 7 43 33 48 106 11 141 -23 20 -70 28 -98 16z"/>
<path d="M8912 13614 c-43 -47 -54 -87 -27 -98 10 -3 24 5 38 21 12 14 32 37
45 51 12 14 22 36 22 48 0 38 -32 29 -78 -22z"/>
<path d="M9074 12260 c-29 -11 -54 -49 -54 -78 0 -30 25 -78 45 -86 27 -10 79
-6 96 7 43 33 48 106 11 141 -23 20 -70 28 -98 16z"/>
<path d="M9314 12260 c-29 -11 -54 -49 -54 -78 0 -30 25 -78 45 -86 27 -10 79
-6 96 7 43 33 48 106 11 141 -23 20 -70 28 -98 16z"/>
<path d="M8160 14549 c-93 -49 -104 -75 -31 -73 51 2 121 48 121 80 0 31 -20
30 -90 -7z"/>
<path d="M6705 12373 c-31 -6 -79 -48 -71 -61 12 -20 49 -15 149 21 67 24 5
57 -78 40z"/>
<path d="M4994 12260 c-29 -11 -54 -49 -54 -78 0 -30 25 -78 45 -86 27 -10 79
-6 96 7 43 33 48 106 11 141 -23 20 -70 28 -98 16z"/>
<path d="M5234 12260 c-29 -11 -54 -49 -54 -78 0 -30 25 -78 45 -86 27 -10 79
-6 96 7 43 33 48 106 11 141 -23 20 -70 28 -98 16z"/>
<path d="M5474 12260 c-29 -11 -54 -49 -54 -78 0 -30 25 -78 45 -86 27 -10 79
-6 96 7 43 33 48 106 11 141 -23 20 -70 28 -98 16z"/>
<path d="M5714 12260 c-29 -11 -54 -49 -54 -78 0 -30 25 -78 45 -86 27 -10 79
-6 96 7 43 33 48 106 11 141 -23 20 -70 28 -98 16z"/>
<path d="M5954 12260 c-29 -11 -54 -49 -54 -78 0 -30 25 -78 45 -86 27 -10 79
-6 96 7 43 33 48 106 11 141 -23 20 -70 28 -98 16z"/>
<path d="M6194 12260 c-29 -11 -54 -49 -54 -78 0 -30 25 -78 45 -86 27 -10 79
-6 96 7 43 33 48 106 11 141 -23 20 -70 28 -98 16z"/>
<path d="M6434 12260 c-29 -11 -54 -49 -54 -78 0 -30 25 -78 45 -86 27 -10 79
-6 96 7 43 33 48 106 11 141 -23 20 -70 28 -98 16z"/>
<path d="M6674 12260 c-49 -20 -66 -77 -39 -129 41 -80 185 -37 185 55 0 26
-7 36 -37 54 -44 26 -81 33 -109 20z"/>
<path d="M6914 12260 c-29 -11 -54 -49 -54 -78 0 -30 25 -78 45 -86 27 -10 79
-6 96 7 43 33 48 106 11 141 -23 20 -70 28 -98 16z"/>
<path d="M7154 12260 c-29 -11 -54 -49 -54 -78 0 -30 25 -78 45 -86 27 -10 79
-6 96 7 43 33 48 106 11 141 -23 20 -70 28 -98 16z"/>
<path d="M7394 12260 c-29 -11 -54 -49 -54 -78 0 -30 25 -78 45 -86 27 -10 79
-6 96 7 43 33 48 106 11 141 -23 20 -70 28 -98 16z"/>
<path d="M7634 12260 c-29 -11 -54 -49 -54 -78 0 -30 25 -78 45 -86 27 -10 79
-6 96 7 43 33 48 106 11 141 -23 20 -70 28 -98 16z"/>
<path d="M7874 12260 c-29 -11 -54 -49 -54 -78 0 -30 25 -78 45 -86 27 -10 79
-6 96 7 43 33 48 106 11 141 -23 20 -70 28 -98 16z"/>
<path d="M8114 12260 c-29 -11 -54 -49 -54 -78 0 -30 25 -78 45 -86 27 -10 79
-6 96 7 43 33 48 106 11 141 -23 20 -70 28 -98 16z"/>
<path d="M8354 12260 c-29 -11 -54 -49 -54 -78 0 -30 25 -78 45 -86 27 -10 79
-6 96 7 43 33 48 106 11 141 -23 20 -70 28 -98 16z"/>
<path d="M5976 11414 c-8 -21 -4 -26 46 -50 55 -27 163 -55 253 -64 39 -4 95
-14 125 -21 40 -10 144 -13 380 -14 273 0 335 3 385 17 33 9 83 21 110 27 170
35 215 53 215 86 0 22 -26 24 -82 8 -29 -8 -82 -24 -118 -34 -142 -41 -239
-53 -480 -56 -177 -3 -257 0 -325 11 -49 8 -119 18 -155 21 -65 6 -95 13 -248
60 -98 30 -98 30 -106 9z"/>
<path d="M6491 10196 c-10 -11 -6 -20 16 -40 31 -29 69 -37 201 -39 73 -2 95
1 102 13 18 28 -18 40 -120 40 -64 0 -102 4 -115 14 -33 22 -71 27 -84 12z"/>
<path d="M5532 6302 c-18 -6 -14 -37 6 -54 54 -48 131 -70 300 -84 73 -7 172
8 200 29 31 24 -11 32 -171 32 l-162 0 -81 41 c-44 22 -86 38 -92 36z"/>
<path d="M5864 2855 c-11 -27 5 -45 62 -70 59 -26 108 -32 119 -15 13 20 -14
44 -66 57 -29 8 -60 20 -69 28 -21 19 -39 19 -46 0z"/>
<path d="M7178 6179 c-24 -14 -3 -58 31 -65 14 -3 56 -14 93 -25 84 -24 175
-24 252 0 34 11 73 22 89 26 20 4 27 11 27 30 0 34 -13 38 -67 21 -172 -54
-156 -52 -240 -32 -43 10 -89 20 -102 22 -13 3 -30 12 -38 19 -17 17 -22 18
-45 4z"/>
<path d="M7155 2750 c-3 -5 -4 -14 0 -20 8 -13 73 -30 116 -30 41 0 86 30 75
48 -9 15 -182 16 -191 2z"/>
<path d="M15200 20179 c-345 -44 -410 -59 -565 -135 -57 -28 -135 -81 -182
-125 -32 -29 -123 -153 -123 -167 0 -4 -9 -25 -19 -47 -30 -63 -49 -133 -62
-225 -11 -86 -14 -314 -4 -330 7 -11 -20 -66 -38 -77 -24 -15 -59 -83 -74
-146 -44 -187 18 -397 155 -524 30 -29 33 -35 21 -49 -8 -9 -28 -42 -46 -73
-201 -355 -245 -654 -131 -889 12 -26 33 -58 45 -72 38 -40 27 -58 -57 -92
-41 -16 -87 -36 -102 -44 -14 -8 -32 -14 -40 -14 -7 0 -25 -6 -39 -14 -14 -7
-38 -16 -54 -20 -16 -4 -48 -16 -72 -27 -23 -10 -46 -19 -51 -19 -9 0 -64 -22
-139 -56 -17 -8 -35 -14 -40 -14 -5 0 -33 -13 -63 -29 -30 -16 -69 -36 -87
-45 -44 -20 -196 -168 -236 -230 -64 -97 -109 -193 -140 -296 -9 -30 -23 -78
-32 -107 -8 -28 -19 -84 -25 -125 -6 -40 -15 -89 -20 -108 -5 -19 -12 -71 -15
-115 -4 -44 -10 -100 -15 -125 -5 -25 -14 -95 -20 -155 -6 -61 -17 -141 -25
-180 -8 -38 -19 -95 -25 -125 -19 -98 -46 -210 -104 -430 -47 -175 -54 -203
-76 -305 -39 -170 -60 -319 -70 -483 -6 -90 -12 -167 -14 -171 -3 -4 -10 -47
-16 -97 -6 -49 -17 -127 -25 -174 -62 -365 -75 -557 -75 -1107 l0 -341 -35 -6
c-93 -18 -100 -146 -9 -176 l36 -12 -6 -162 c-4 -88 -12 -199 -17 -246 -5 -47
-14 -132 -20 -190 -6 -58 -17 -130 -25 -160 -8 -30 -14 -73 -14 -96 0 -23 -7
-61 -16 -85 -21 -60 -37 -331 -31 -509 12 -295 102 -506 304 -708 l92 -93 30
16 c62 32 65 46 65 402 1 223 4 325 12 333 8 8 21 0 49 -32 20 -24 42 -53 48
-66 6 -13 23 -26 38 -29 17 -3 29 -13 33 -27 3 -11 6 -109 6 -216 0 -107 5
-229 10 -270 6 -41 14 -133 20 -205 18 -256 102 -693 191 -1000 11 -38 24 -88
30 -110 5 -22 15 -56 23 -75 7 -19 23 -69 36 -110 12 -41 28 -88 36 -103 8
-16 14 -35 14 -43 0 -7 12 -44 26 -81 37 -94 47 -123 89 -243 20 -58 43 -121
52 -140 9 -19 19 -48 24 -65 4 -16 24 -75 44 -130 67 -184 105 -304 146 -455
37 -135 86 -345 98 -420 5 -30 14 -77 21 -105 26 -112 40 -384 40 -781 0 -357
19 -819 35 -845 3 -4 9 -60 15 -124 10 -131 29 -272 81 -605 11 -69 26 -170
33 -225 8 -55 17 -107 20 -115 3 -8 12 -58 20 -110 30 -195 47 -296 56 -325 5
-16 14 -66 19 -110 5 -44 14 -118 20 -165 33 -264 45 -393 46 -459 l0 -75 -48
-12 c-60 -15 -74 -27 -101 -83 -18 -38 -27 -47 -56 -51 -19 -4 -45 -11 -56
-18 -25 -13 -54 -79 -54 -121 0 -16 -7 -34 -16 -42 -34 -28 -46 -70 -40 -131
18 -158 254 -447 571 -701 37 -29 128 -82 179 -104 54 -23 70 -25 156 -20 72
3 106 10 139 27 87 44 157 134 201 260 28 81 48 303 49 555 1 226 14 495 40
860 6 72 19 288 30 480 12 193 25 413 31 490 5 77 14 250 20 385 5 135 15 355
21 490 14 332 15 797 1 955 -46 504 -46 520 -47 2278 -1 922 2 1674 5 1670 22
-26 43 -120 56 -254 22 -222 31 -511 43 -1314 12 -748 26 -1257 42 -1465 14
-187 11 -575 -5 -814 -8 -116 -23 -420 -32 -676 -18 -504 -16 -894 10 -1455
13 -286 21 -372 61 -680 8 -60 19 -166 25 -235 6 -69 15 -154 20 -190 5 -36
11 -243 14 -460 3 -314 7 -415 21 -490 44 -248 123 -336 312 -348 72 -4 91 -1
160 24 114 41 200 94 307 190 53 47 96 89 96 92 1 4 28 36 61 72 34 36 77 89
97 119 57 84 131 205 132 214 0 5 8 21 18 35 52 77 87 251 62 311 -8 20 -27
37 -56 51 -25 11 -49 30 -53 43 -15 38 -70 70 -129 75 l-54 5 5 36 c2 20 9 61
15 91 5 30 20 123 31 205 12 83 28 195 36 250 8 55 17 136 21 180 3 44 10 105
15 135 5 30 13 116 19 190 5 74 16 194 25 265 34 300 46 415 55 505 5 52 13
140 19 195 41 395 39 833 -4 1170 -52 410 -36 585 91 1000 19 61 44 142 55
180 12 39 27 86 35 105 14 41 39 116 58 180 53 176 79 260 88 290 6 19 17 62
24 95 7 33 23 98 34 145 12 47 27 114 35 150 7 36 18 81 23 100 6 19 20 80 32
135 12 55 30 136 40 180 29 133 60 276 75 350 8 39 23 113 34 165 19 94 46
241 75 415 15 89 31 246 46 460 11 141 11 409 0 550 -18 248 -41 493 -49 540
-5 28 -12 75 -15 105 -6 52 -13 99 -52 315 -9 50 -20 114 -24 144 -5 30 -16
84 -25 120 -9 36 -22 91 -30 121 -7 30 -23 91 -34 135 -11 44 -23 96 -27 116
l-6 37 51 3 50 4 16 -45 c9 -25 20 -63 25 -86 5 -22 15 -56 23 -75 8 -19 33
-95 56 -169 23 -74 47 -151 53 -169 31 -100 76 -299 88 -394 6 -44 15 -98 20
-120 6 -23 15 -105 20 -182 10 -149 37 -296 67 -358 22 -47 52 -56 102 -31 20
10 39 20 44 22 4 2 7 -34 7 -79 0 -80 -18 -159 -56 -248 -8 -19 -18 -78 -21
-132 -5 -87 -4 -102 12 -119 23 -26 47 -25 120 5 33 14 65 25 70 25 20 0 104
81 137 132 19 29 44 81 56 114 24 68 46 215 37 244 -3 11 1 52 9 92 31 154
-28 516 -129 793 -15 39 -30 86 -35 105 -5 19 -21 67 -36 105 -57 154 -83 309
-84 516 l0 56 49 -5 c43 -4 53 -1 75 21 39 39 36 97 -5 131 -33 28 -53 32 -94
16 -19 -7 -27 -6 -30 3 -2 6 -11 162 -20 345 -15 333 -19 373 -51 572 -9 58
-20 130 -24 160 -5 30 -20 107 -34 170 -15 63 -33 147 -40 186 -8 39 -19 81
-25 92 -6 11 -11 30 -11 42 0 12 -9 54 -20 93 -11 40 -27 95 -34 122 -47 167
-59 211 -87 310 -17 61 -34 126 -39 145 -4 19 -14 60 -23 90 -54 183 -78 297
-97 460 -5 47 -14 121 -20 165 -35 270 -50 415 -50 497 0 51 -5 134 -10 183
-22 221 -40 364 -50 389 -5 15 -10 40 -10 56 0 16 -9 53 -19 82 -10 29 -22 66
-25 81 -7 28 -38 97 -67 147 -33 58 -123 160 -192 219 -102 87 -177 125 -337
171 -41 12 -131 39 -200 60 -69 21 -161 48 -205 59 -252 65 -388 161 -435 306
-7 22 -16 45 -20 50 -6 9 -20 60 -71 270 -5 22 -13 78 -19 125 -5 47 -12 106
-16 132 -6 45 -5 49 27 75 68 56 127 124 169 194 24 41 55 78 72 88 80 44 169
156 209 261 20 54 24 81 23 160 -2 80 -6 103 -27 145 -14 28 -40 63 -56 78
l-31 27 0 143 c-1 78 -5 171 -10 207 -5 36 -14 103 -20 150 -12 81 -37 172
-77 270 -20 49 -90 156 -119 181 -38 33 -124 89 -161 105 -111 48 -333 72
-483 53z m365 -98 c112 -31 142 -47 219 -124 112 -111 166 -248 196 -502 11
-89 11 -379 1 -470 -14 -121 -41 -278 -55 -325 -8 -25 -17 -56 -19 -70 -9 -44
-40 -122 -64 -164 -13 -23 -30 -57 -39 -76 -17 -37 -145 -170 -163 -170 -13 0
-15 36 -2 44 11 7 54 97 79 166 34 92 52 193 52 289 0 79 -3 94 -21 112 -36
36 -44 20 -40 -80 4 -110 -14 -240 -40 -297 -10 -23 -19 -46 -19 -51 0 -5 -12
-20 -26 -34 l-26 -24 6 38 c3 20 9 52 12 71 7 38 -6 52 -35 37 -12 -7 -21 -26
-25 -53 -4 -24 -22 -74 -41 -113 -44 -89 -45 -110 -6 -102 33 7 67 -13 59 -35
-6 -16 -116 -49 -170 -51 -43 -2 -47 21 -18 116 34 109 32 280 -3 407 -14 52
-31 115 -38 140 -25 101 -74 193 -128 243 -58 54 -99 65 -180 47 -65 -15 -123
-56 -151 -109 -18 -35 -179 -199 -250 -255 -19 -15 -58 -49 -85 -76 -71 -68
-81 -67 -111 4 -13 33 -24 70 -24 82 0 13 -5 35 -11 51 -20 50 -59 217 -59
253 0 19 -5 54 -10 78 -6 23 -14 83 -19 132 -9 86 -7 120 24 315 8 52 45 156
62 176 7 8 13 20 13 25 0 12 62 96 101 136 43 45 50 25 32 -90 -17 -110 -14
-132 16 -132 22 0 26 10 36 100 3 30 13 75 20 100 8 25 17 56 20 70 7 31 44
76 70 84 39 11 44 -4 27 -83 -15 -70 -15 -74 3 -87 23 -17 45 -2 45 31 0 12
11 53 25 91 14 38 25 70 25 72 0 11 112 52 142 52 20 0 49 5 65 11 86 33 406
33 528 0z m-1296 -1128 c5 -10 12 -40 16 -68 9 -59 51 -229 101 -401 4 -16 0
-23 -15 -27 -16 -4 -29 7 -59 47 -104 137 -137 280 -95 413 17 54 35 67 52 36z
m915 -32 c30 -47 66 -129 66 -150 0 -9 6 -25 14 -36 39 -56 68 -245 59 -380
-5 -81 -35 -193 -59 -230 -8 -11 -14 -25 -14 -32 0 -46 -193 -269 -321 -372
-46 -36 -59 -46 -152 -113 -29 -21 -70 -51 -92 -67 -22 -15 -51 -34 -65 -41
-14 -7 -45 -28 -69 -47 -52 -39 -61 -41 -61 -9 0 28 99 139 162 181 23 16 53
38 66 49 23 20 29 50 12 61 -27 17 -202 -125 -259 -210 -24 -36 -47 -65 -50
-65 -4 0 -15 -17 -26 -37 -31 -58 -74 -103 -92 -96 -25 10 -7 106 35 187 46
86 199 244 352 362 154 119 287 262 339 363 41 83 50 124 30 137 -15 9 -69
-46 -69 -72 0 -12 -7 -27 -15 -34 -8 -7 -15 -17 -15 -23 0 -14 -63 -106 -97
-142 -47 -49 -232 -211 -312 -273 -149 -116 -239 -223 -286 -339 -32 -77 -56
-82 -79 -16 -55 155 -47 300 29 513 19 51 118 253 135 272 6 7 24 34 41 60 35
54 239 260 377 382 51 44 125 121 163 169 61 75 75 88 97 85 21 -2 28 -10 35
-38 4 -19 12 -49 18 -66 5 -17 9 -62 9 -101 0 -56 3 -72 16 -77 9 -4 23 -1 32
6 12 10 14 29 9 98 -4 47 -13 103 -21 125 -7 21 -12 44 -9 51 8 21 44 2 67
-35z m912 -23 c13 -61 5 -170 -16 -211 -11 -20 -20 -43 -20 -50 -1 -16 -46
-67 -60 -67 -14 0 -12 39 5 96 9 27 20 94 25 148 9 95 17 115 47 116 6 0 15
-15 19 -32z m-506 -863 c7 -8 18 -54 25 -102 15 -100 30 -179 51 -273 33 -143
34 -153 23 -166 -8 -9 -18 -10 -35 -3 -33 12 -491 11 -574 -1 -236 -36 -350
-44 -350 -25 0 8 10 20 22 26 12 6 31 20 41 30 11 10 34 25 51 33 17 8 45 28
61 43 17 15 57 49 90 74 100 77 140 121 286 312 17 23 28 27 68 27 26 0 70 6
97 14 95 28 128 30 144 11z m39 -601 c36 -8 76 -17 87 -19 28 -6 38 -42 16
-54 -18 -9 -422 21 -441 34 -6 3 -11 17 -11 31 l0 24 142 0 c93 0 164 -5 207
-16z m-582 -31 c12 -31 -32 -53 -111 -53 -39 -1 -100 -7 -136 -15 -69 -15
-210 -20 -210 -7 0 15 86 51 135 56 28 3 73 12 100 20 28 8 87 15 133 15 68 1
84 -2 89 -16z m147 11 c26 -10 20 -53 -8 -60 -31 -7 -66 11 -66 36 0 26 37 38
74 24z m542 -110 c39 -4 61 -13 90 -38 67 -56 143 -106 163 -106 11 0 22 -4
25 -9 4 -5 52 -23 109 -40 56 -17 116 -36 132 -42 45 -16 123 -39 185 -55 92
-23 184 -50 213 -62 16 -7 34 -12 41 -12 7 0 42 -13 77 -29 128 -60 277 -200
340 -319 13 -26 29 -54 35 -62 28 -38 62 -177 84 -340 6 -41 17 -122 25 -180
8 -58 20 -184 26 -280 6 -96 13 -178 15 -182 3 -4 9 -82 14 -172 5 -91 15
-187 20 -213 6 -26 15 -88 20 -138 8 -86 28 -199 51 -295 6 -25 17 -70 24
-100 7 -30 23 -86 35 -125 12 -38 27 -92 35 -120 7 -27 18 -63 23 -80 32 -96
107 -368 122 -445 5 -25 16 -67 24 -95 8 -27 24 -95 36 -150 12 -55 26 -120
31 -145 20 -91 51 -278 59 -355 5 -44 13 -107 19 -140 6 -33 18 -193 26 -355
8 -162 16 -321 18 -353 l3 -57 -26 25 c-70 67 -179 12 -156 -80 17 -67 104
-88 155 -37 l28 27 7 -180 c7 -197 33 -378 59 -416 10 -13 17 -32 17 -42 0
-10 14 -50 31 -90 17 -40 37 -92 44 -117 7 -25 17 -58 23 -75 49 -144 109
-429 119 -565 5 -65 2 -88 -21 -155 -27 -81 -88 -208 -112 -236 -8 -8 -14 -19
-14 -23 0 -4 -16 -31 -35 -60 -19 -29 -35 -56 -35 -60 0 -4 -13 -21 -30 -38
l-30 -30 0 39 c0 22 4 43 9 49 15 16 54 176 59 241 2 35 -2 84 -8 110 -6 27
-15 76 -20 110 -5 34 -16 78 -24 98 -9 20 -18 60 -22 88 -8 62 -18 77 -45 70
-32 -9 -42 -49 -29 -120 13 -68 1 -133 -25 -133 -17 0 -41 110 -50 225 -4 44
-13 116 -21 160 -8 44 -14 98 -14 119 0 42 -32 219 -55 301 -7 28 -22 79 -33
115 -41 139 -63 213 -83 283 -12 39 -27 88 -34 107 -7 19 -38 116 -70 215 -51
164 -65 206 -104 315 -7 19 -19 55 -26 80 -7 25 -25 77 -40 115 -14 39 -30 84
-35 100 -16 55 -42 130 -55 160 -16 38 -46 121 -74 205 -12 36 -27 79 -32 95
-6 17 -17 55 -24 85 -7 30 -18 78 -25 105 -58 237 -76 327 -115 570 -9 55 -23
119 -31 143 -7 23 -14 53 -14 65 0 13 -9 48 -20 80 -11 31 -20 64 -20 72 0 9
-7 29 -15 44 -11 23 -15 81 -16 282 -2 235 0 259 20 318 11 35 21 73 21 84 0
12 6 39 14 62 31 89 49 272 42 440 -9 240 -29 452 -43 466 -10 10 -18 10 -39
0 -26 -11 -26 -13 -20 -84 4 -39 12 -106 18 -147 6 -41 11 -163 11 -270 0
-193 -3 -225 -45 -395 -52 -214 -66 -300 -67 -406 -1 -50 -6 -80 -14 -87 -25
-21 -157 -82 -177 -82 -12 0 -33 -6 -48 -14 -15 -8 -50 -17 -77 -22 -27 -4
-64 -13 -82 -20 -18 -8 -52 -14 -76 -14 -23 0 -70 -7 -102 -16 -33 -8 -132
-20 -220 -25 -88 -5 -207 -14 -265 -19 -58 -5 -196 -9 -306 -9 l-202 -1 -13
43 c-10 33 -14 170 -15 616 -3 527 -4 575 -20 584 -11 6 -19 5 -24 -3 -13 -20
-21 -814 -11 -1030 6 -112 8 -206 5 -209 -11 -11 -289 -30 -444 -31 -198 0
-555 26 -627 46 -28 8 -62 14 -75 14 -28 0 -137 38 -195 68 -26 14 -45 31 -48
45 -2 12 -6 119 -8 237 -3 219 -7 247 -56 420 -59 208 -73 334 -69 605 l3 210
-26 3 c-49 6 -51 -4 -47 -315 4 -300 5 -305 58 -493 22 -79 48 -199 55 -260 4
-35 7 -363 4 -505 -1 -41 -58 -350 -91 -485 -6 -25 -16 -74 -23 -110 -25 -127
-65 -303 -96 -417 -10 -39 -19 -79 -19 -89 0 -9 -6 -40 -14 -68 -41 -147 -56
-207 -56 -225 0 -10 -7 -41 -15 -67 -20 -67 -44 -166 -60 -244 -7 -36 -19 -85
-25 -110 -7 -25 -20 -79 -30 -120 -10 -41 -24 -97 -30 -125 -7 -27 -17 -75
-22 -105 -13 -85 -15 -87 -46 -57 -38 37 -79 43 -119 18 -100 -62 -5 -206 99
-150 28 15 31 7 14 -36 -9 -21 -20 -61 -26 -89 -9 -49 -27 -128 -55 -231 -7
-27 -18 -86 -24 -130 -33 -240 -34 -253 -23 -327 20 -122 33 -190 48 -248 17
-66 43 -211 53 -297 4 -36 14 -70 24 -81 20 -21 26 -87 10 -103 -12 -12 -29 8
-108 120 -87 123 -82 118 -98 101 -28 -29 -40 -107 -46 -287 -3 -100 -8 -184
-11 -186 -3 -3 -13 1 -24 8 -22 16 -35 110 -36 252 0 72 4 99 19 125 10 18 22
58 25 88 4 30 14 80 22 110 8 30 14 80 12 110 -3 47 -6 55 -24 58 -37 5 -50
-21 -57 -110 -4 -46 -13 -105 -22 -132 -8 -27 -15 -62 -15 -79 0 -16 -9 -40
-20 -54 -17 -22 -20 -40 -20 -127 1 -55 5 -119 10 -141 4 -22 14 -67 20 -100
12 -58 32 -121 70 -215 10 -25 20 -61 22 -80 5 -60 -23 -49 -89 32 -90 112
-129 179 -174 308 -40 111 -63 341 -49 472 6 51 13 120 16 153 3 33 11 83 19
110 7 28 17 89 20 137 4 49 13 112 21 140 7 29 14 73 14 98 0 25 9 113 20 195
14 110 20 216 20 395 2 401 19 1105 31 1245 5 72 16 164 24 205 7 41 17 111
20 155 4 43 12 91 17 105 5 14 14 72 19 130 5 57 14 121 19 141 6 19 14 105
19 190 5 85 12 161 16 170 3 8 12 53 19 100 8 46 20 104 26 129 7 25 21 81 32
125 11 44 25 103 33 130 7 28 23 88 35 135 12 47 30 117 41 155 10 39 19 82
19 96 0 15 6 44 14 65 7 22 16 68 20 102 4 35 12 76 17 90 6 15 14 75 20 135
5 60 16 148 24 194 8 47 15 109 15 137 0 28 5 67 10 86 6 19 15 67 21 105 13
89 43 187 101 330 32 79 123 208 192 273 53 49 192 142 214 142 4 0 20 7 37
16 46 24 150 64 166 64 8 0 25 7 38 16 13 9 37 20 55 25 17 4 63 20 101 34 39
15 79 29 90 32 11 3 81 35 155 70 99 47 143 63 165 60 17 -2 64 2 105 9 41 7
122 13 180 14 58 0 139 6 180 14 135 25 186 28 200 11 12 -15 1 -65 -50 -210
-42 -119 -51 -164 -53 -247 -1 -81 1 -89 29 -123 16 -21 34 -45 41 -54 9 -12
9 -54 2 -171 -13 -188 -5 -289 23 -325 45 -58 108 -62 128 -10 6 17 8 124 3
288 -7 299 -5 310 52 297 43 -10 89 17 116 70 25 47 25 160 -1 268 -11 46 -20
100 -20 121 0 21 -5 53 -11 71 -9 24 -9 34 0 39 12 8 333 4 417 -5z m-492 -6
c2 -7 11 -36 20 -63 18 -55 34 -163 43 -291 6 -95 -11 -144 -51 -144 -63 0
-116 241 -86 394 6 33 13 71 16 83 3 19 16 27 47 32 4 0 9 -5 11 -11z m-139
-256 c4 -42 13 -100 22 -129 8 -29 13 -71 11 -95 -3 -44 -13 -54 -75 -72 -34
-11 -57 41 -50 113 8 80 32 181 51 216 9 17 16 36 16 43 0 7 4 11 9 8 5 -4 12
-41 16 -84z m28 -584 c14 -231 8 -272 -31 -247 -29 18 -36 75 -29 218 5 94 9
118 23 128 10 7 21 13 24 13 4 0 10 -51 13 -112z m1547 -1917 c0 -10 -12 -27
-27 -37 -51 -33 -114 -64 -131 -64 -9 0 -29 -7 -45 -15 -15 -8 -52 -19 -82
-24 -30 -6 -63 -14 -73 -19 -9 -5 -42 -12 -73 -16 -31 -3 -75 -13 -99 -21 -23
-8 -66 -15 -94 -15 -28 0 -78 -7 -111 -15 -120 -29 -708 -45 -767 -20 -24 10
-23 42 1 55 12 6 114 10 263 10 160 0 281 5 353 15 61 8 164 19 230 25 119 9
173 18 290 46 33 8 80 19 105 24 25 4 59 15 75 24 17 9 40 16 52 16 12 0 28 6
35 13 11 11 65 33 91 36 4 1 7 -7 7 -18z m-2925 -121 c22 -11 48 -20 60 -20
11 0 49 -8 85 -19 36 -11 128 -25 205 -31 77 -6 176 -16 220 -21 44 -5 201 -8
350 -7 250 3 270 2 273 -14 6 -30 -35 -37 -154 -26 -60 5 -273 11 -474 13
-299 3 -374 6 -414 19 -27 9 -62 16 -78 16 -16 0 -46 9 -68 20 -22 11 -45 20
-53 20 -19 0 -60 46 -52 59 10 17 57 13 100 -9z m2938 13 c3 -5 10 -73 16
-153 10 -126 9 -174 -8 -364 -11 -121 -28 -251 -37 -290 -22 -98 -53 -205 -68
-241 -7 -16 -24 -57 -36 -90 -13 -33 -41 -90 -62 -126 -44 -75 -52 -116 -26
-132 35 -23 88 52 161 228 14 33 28 72 31 87 7 31 35 63 46 51 4 -4 27 -66 50
-138 23 -71 48 -143 55 -160 7 -16 22 -56 33 -88 12 -31 30 -81 42 -110 11
-29 20 -60 20 -69 0 -10 6 -32 14 -50 21 -49 50 -134 76 -218 12 -41 27 -86
32 -100 14 -36 58 -188 58 -201 0 -6 -13 -8 -32 -4 -65 11 -120 -47 -104 -110
15 -61 97 -86 148 -45 l25 19 16 -42 c17 -47 43 -149 57 -217 4 -25 13 -58 19
-73 30 -77 -5 -103 -158 -117 -53 -4 -123 -15 -156 -24 -32 -9 -83 -16 -111
-16 -29 0 -83 -6 -121 -14 -37 -8 -122 -17 -188 -21 -66 -4 -136 -11 -155 -16
-19 -5 -134 -14 -255 -19 -121 -5 -281 -14 -355 -19 -174 -13 -1178 -13 -1515
-1 -652 25 -734 28 -746 35 -6 4 -48 11 -93 16 -127 13 -126 5 -46 319 6 25
16 69 21 99 14 75 25 94 49 81 36 -19 89 -12 115 16 51 55 19 138 -56 150 -39
6 -40 8 -34 38 11 50 100 364 126 441 6 17 16 50 24 75 7 25 17 59 23 75 21
61 52 170 52 184 0 7 7 34 15 60 20 63 55 218 55 241 0 10 4 22 10 25 13 8 50
-13 50 -28 0 -15 58 -127 78 -149 18 -21 55 -23 71 -4 9 11 6 24 -14 61 -14
27 -29 53 -33 59 -10 12 -40 72 -64 126 -31 69 -98 327 -98 377 0 16 -6 52
-14 79 -8 27 -19 121 -25 209 -10 136 -9 161 3 174 11 10 19 11 28 4 7 -6 60
-22 118 -36 111 -27 86 -25 760 -47 304 -10 360 -14 371 -32 11 -17 -26 -171
-56 -235 -8 -17 -15 -39 -15 -50 0 -10 -7 -40 -15 -68 -28 -92 5 -167 80 -183
l40 -8 5 -236 c5 -239 11 -277 40 -243 9 11 13 72 14 233 l1 217 67 0 c61 1
71 4 99 30 17 17 42 54 56 82 22 47 24 63 20 140 -4 93 -26 167 -62 218 -12
17 -33 49 -46 73 -20 37 -21 45 -9 53 8 5 33 6 55 3 69 -12 262 -8 460 9 105
9 215 19 245 21 64 5 274 39 340 56 137 35 263 76 335 111 41 19 80 25 88 12z
m-1613 -122 c0 -5 -7 -14 -15 -21 -12 -10 -18 -10 -30 0 -8 7 -12 16 -9 21 7
12 54 12 54 0z m75 -217 c16 -32 33 -65 39 -72 18 -24 45 -116 46 -153 0 -47
-27 -128 -54 -158 -35 -39 -58 -42 -86 -12 l-25 26 2 210 c2 116 3 223 3 239
l0 29 23 -25 c13 -13 36 -51 52 -84z m-1552 -121 c9 -49 20 -115 23 -148 4
-33 13 -80 20 -105 19 -63 18 -127 -6 -260 -39 -217 -56 -289 -105 -450 -7
-25 -23 -79 -35 -120 -12 -41 -30 -100 -40 -130 -10 -30 -28 -91 -40 -135 -13
-44 -29 -98 -36 -120 -7 -22 -22 -74 -33 -115 -11 -41 -27 -100 -36 -132 l-15
-56 -34 34 c-26 26 -42 34 -70 34 -41 0 -42 5 -21 77 8 27 19 76 24 109 6 32
18 88 27 124 9 36 41 166 71 290 29 124 60 248 67 275 14 49 40 156 56 225 4
19 18 76 29 125 51 217 104 457 118 533 3 17 9 32 12 32 4 0 15 -39 24 -87z
m1421 35 c9 -43 -1 -140 -21 -206 -16 -57 -45 -80 -72 -59 -18 15 -8 144 14
187 8 16 15 39 15 50 0 61 53 84 64 28z m1797 -145 c5 -13 9 -41 9 -61 0 -21
5 -53 10 -72 6 -19 17 -66 25 -105 23 -120 45 -218 60 -265 7 -25 23 -81 36
-125 27 -101 136 -440 148 -463 14 -27 71 -179 96 -257 75 -235 76 -238 63
-247 -7 -4 -17 -8 -22 -8 -6 0 -20 -9 -32 -21 -25 -23 -24 -24 -40 51 -3 19
-12 48 -19 65 -7 16 -23 64 -35 105 -13 41 -29 91 -36 110 -7 19 -18 51 -23
70 -5 19 -21 67 -35 105 -15 39 -30 86 -36 105 -5 19 -29 91 -53 160 -169 480
-197 583 -179 661 7 28 12 74 12 102 0 83 10 126 27 120 8 -3 19 -17 24 -30z
m-3614 -1771 c21 3 46 8 55 12 15 7 16 3 8 -26 -12 -46 -41 -165 -51 -213 -4
-22 -20 -89 -34 -150 -14 -60 -27 -126 -30 -145 -4 -19 -15 -84 -25 -145 -23
-133 -48 -307 -57 -392 -3 -35 -9 -63 -13 -63 -12 0 -39 73 -46 125 -3 28 -12
77 -20 110 -16 70 -19 292 -4 331 6 15 15 61 21 103 5 42 14 90 20 107 5 18
14 54 18 80 9 53 32 145 58 236 16 56 16 57 39 41 15 -9 38 -13 61 -11z m4037
-455 c11 -8 22 -40 31 -91 14 -85 8 -110 -29 -122 -11 -4 -41 -22 -68 -40 -26
-19 -51 -34 -54 -34 -6 0 -60 -34 -194 -123 -14 -9 -61 -41 -105 -72 -44 -31
-98 -68 -120 -83 -64 -44 -177 -128 -222 -167 -23 -20 -65 -54 -93 -75 -29
-21 -84 -68 -123 -103 -40 -35 -90 -79 -112 -98 -140 -120 -266 -247 -460
-464 -49 -55 -100 -111 -113 -125 -13 -14 -30 -37 -38 -52 -8 -15 -25 -30 -38
-34 -20 -5 -75 15 -126 47 -60 37 -136 50 -187 33 -21 -8 -46 -11 -55 -8 -9 3
-39 35 -67 72 -56 76 -372 390 -441 440 -25 18 -90 68 -145 113 -168 135 -308
243 -355 273 -25 16 -47 31 -50 35 -7 8 -141 100 -184 126 -19 11 -60 36 -91
55 -112 69 -130 79 -155 89 -14 6 -32 15 -40 20 -36 23 -161 80 -235 109 -27
11 -72 28 -100 39 l-50 19 3 60 c4 81 15 91 89 75 56 -11 92 -15 393 -42 186
-17 2008 -25 2138 -10 52 6 187 16 300 22 113 5 224 14 247 19 22 6 90 13 150
16 61 3 139 12 175 19 36 8 99 16 140 20 41 3 104 12 140 20 36 8 99 18 140
23 41 5 78 10 81 11 3 0 13 -5 23 -12z m75 -324 c6 -32 16 -87 22 -123 5 -36
17 -105 25 -155 7 -49 19 -144 24 -210 6 -66 15 -154 20 -195 15 -125 12 -772
-4 -897 -8 -59 -17 -146 -21 -192 -4 -46 -11 -95 -16 -107 -4 -13 -13 -63 -19
-110 -6 -48 -15 -95 -20 -104 -5 -10 -14 -48 -19 -86 -12 -90 -38 -226 -56
-290 -8 -28 -15 -63 -15 -79 0 -15 -9 -62 -19 -104 -11 -42 -27 -112 -36 -156
-16 -78 -35 -158 -70 -300 -10 -38 -21 -90 -24 -115 -4 -25 -10 -50 -14 -56
-4 -7 -13 -40 -21 -75 -8 -35 -25 -100 -36 -144 -12 -44 -28 -105 -35 -135 -7
-30 -18 -68 -24 -85 -6 -16 -20 -64 -32 -105 -22 -76 -90 -290 -110 -345 -6
-16 -17 -50 -24 -75 -7 -25 -18 -58 -23 -75 -6 -16 -20 -64 -32 -105 -11 -41
-27 -95 -34 -120 -8 -25 -17 -65 -21 -90 -4 -25 -13 -67 -21 -94 -17 -59 -20
-466 -4 -531 10 -38 26 -222 50 -562 7 -106 7 -191 0 -280 -5 -70 -17 -211
-25 -313 -8 -102 -19 -212 -25 -245 -5 -33 -10 -82 -10 -110 0 -27 -9 -133
-20 -235 -37 -336 -41 -374 -55 -532 -8 -87 -16 -161 -19 -166 -2 -4 -9 -64
-15 -132 -11 -127 -30 -272 -57 -435 -8 -49 -19 -115 -24 -145 -25 -157 -33
-204 -51 -305 -11 -60 -24 -130 -29 -155 -12 -60 -16 -133 -6 -148 9 -14 42
-16 51 -2 14 22 45 158 45 200 1 71 16 133 37 148 24 18 93 9 110 -14 7 -10
13 -32 13 -50 0 -17 8 -42 18 -54 15 -19 22 -21 40 -11 28 15 30 14 42 -9 16
-30 -5 -119 -45 -201 -75 -148 -283 -430 -390 -527 -70 -64 -177 -135 -237
-158 -59 -22 -154 -34 -211 -27 -88 11 -159 80 -196 192 -19 58 -21 88 -22
290 0 278 -13 649 -28 796 -6 61 -15 160 -21 220 -18 195 -30 318 -41 410 -16
139 -37 426 -50 675 -13 255 -6 1097 10 1305 12 142 30 575 38 920 3 121 0
324 -6 450 -26 503 -31 702 -41 1505 -11 969 -24 1262 -67 1448 -11 47 -13 76
-7 82 11 11 94 -13 129 -37 11 -7 28 -13 38 -13 10 0 31 -7 45 -15 34 -19 266
-95 290 -95 10 0 54 -10 98 -22 69 -18 105 -21 284 -21 129 0 222 5 250 12 25
7 68 17 95 22 65 13 217 59 229 70 6 5 17 9 26 9 8 0 32 9 53 20 20 11 42 20
48 20 15 0 78 50 90 72 7 14 7 23 -2 34 -14 18 -37 18 -69 0 -78 -44 -181 -89
-253 -112 -45 -14 -104 -32 -131 -41 -28 -8 -112 -20 -188 -26 -292 -23 -557
23 -805 138 -64 30 -67 46 -15 103 20 23 48 56 62 74 41 54 126 144 305 323
176 175 211 208 305 285 30 25 65 55 79 68 34 31 279 222 285 222 3 0 34 21
69 48 131 98 314 220 440 294 40 24 74 46 75 50 2 5 16 8 32 8 26 0 29 -4 39
-57z m-3997 8 c24 -11 50 -22 58 -25 8 -3 22 -10 30 -16 8 -5 26 -14 40 -20
14 -5 32 -14 40 -19 8 -5 40 -21 70 -36 86 -41 179 -93 227 -126 24 -16 47
-29 50 -29 4 0 23 -11 42 -24 20 -13 63 -41 96 -62 33 -21 65 -42 70 -46 90
-69 118 -89 162 -116 28 -18 57 -40 64 -48 7 -8 35 -31 63 -49 28 -19 71 -53
96 -75 25 -23 61 -53 80 -68 110 -84 431 -397 507 -495 60 -77 56 -92 -32
-129 -38 -16 -83 -36 -100 -43 -48 -22 -263 -91 -350 -113 -198 -50 -215 -52
-420 -52 -180 0 -208 3 -285 24 -105 30 -164 52 -195 72 -37 24 -69 15 -73
-21 -3 -28 1 -32 55 -57 32 -15 70 -30 86 -34 15 -3 30 -10 32 -15 3 -4 27
-11 53 -14 26 -4 72 -14 102 -23 79 -22 347 -22 460 0 47 9 103 20 125 23 22
4 63 13 90 21 28 8 82 24 120 36 68 19 219 75 280 103 17 7 70 32 119 56 67
31 93 39 105 32 29 -18 34 -282 35 -1863 1 -1542 3 -1660 37 -2020 6 -58 14
-166 19 -240 11 -153 4 -729 -10 -925 -6 -71 -15 -236 -20 -365 -6 -129 -15
-291 -21 -360 -6 -69 -14 -204 -19 -300 -4 -96 -13 -231 -19 -300 -6 -69 -15
-224 -21 -345 -6 -121 -15 -267 -20 -325 -5 -58 -12 -298 -15 -533 -8 -516
-19 -592 -105 -722 -11 -16 -23 -36 -26 -42 -3 -7 -32 -29 -64 -48 -52 -31
-65 -35 -129 -35 -75 0 -141 21 -207 64 -17 12 -57 38 -89 59 -70 47 -218 193
-311 307 -38 47 -77 94 -87 105 -27 29 -106 150 -117 180 -16 42 -12 60 20 93
26 27 30 39 30 86 0 64 15 81 69 78 43 -3 50 3 89 79 21 42 33 55 53 57 41 5
61 -27 69 -111 4 -41 10 -79 14 -85 3 -6 13 -50 21 -98 22 -126 56 -174 84
-121 13 24 12 29 -28 242 -29 148 -42 242 -51 355 -5 69 -14 160 -20 203 -5
42 -15 112 -20 155 -6 42 -15 113 -21 157 -6 44 -17 118 -25 165 -8 47 -19
123 -25 169 -5 47 -12 88 -15 92 -2 4 -10 54 -18 110 -18 126 -34 225 -47 299
-6 30 -14 87 -20 125 -5 39 -16 108 -24 155 -8 47 -19 125 -25 174 -6 50 -13
93 -16 97 -2 4 -9 62 -14 130 -6 68 -15 142 -21 164 -19 84 -39 520 -39 890 0
407 -10 614 -34 747 -50 279 -59 327 -81 408 -41 158 -81 295 -101 350 -14 39
-38 112 -58 180 -22 71 -81 233 -93 255 -6 11 -14 36 -18 55 -4 19 -12 41 -16
50 -11 18 -68 177 -110 305 -17 50 -36 104 -44 122 -8 17 -15 38 -15 47 0 8
-6 30 -14 48 -8 18 -24 67 -36 108 -13 41 -30 100 -40 130 -43 137 -78 266
-89 330 -4 25 -15 77 -24 115 -41 177 -76 388 -88 535 -4 52 -13 127 -19 165
-17 100 -25 760 -11 925 16 203 30 335 47 440 24 151 19 140 64 140 22 0 59
-9 82 -19z"/>
<path d="M14915 18468 c-53 -85 -81 -122 -137 -182 -59 -62 -68 -89 -33 -94
30 -4 131 99 178 182 12 21 28 48 34 60 17 28 16 51 -1 66 -12 9 -20 4 -41
-32z"/>
<path d="M14485 17977 c-110 -86 -155 -131 -155 -156 0 -44 29 -34 98 31 37
35 89 79 115 98 38 27 47 39 45 59 -2 13 -7 26 -13 27 -5 2 -46 -24 -90 -59z"/>
<path d="M17466 13765 c-61 -32 -138 -34 -195 -4 -61 32 -84 4 -35 -42 23 -22
34 -24 117 -24 102 0 131 6 165 35 17 14 22 26 17 40 -8 26 -12 25 -69 -5z"/>
<path d="M12690 13603 c0 -23 67 -80 102 -87 59 -12 155 -7 168 9 20 25 1 35
-65 35 -45 0 -76 6 -103 20 -63 33 -102 42 -102 23z"/>
<path d="M12673 12251 c-77 -48 -42 -161 49 -161 77 0 116 87 66 144 -32 36
-75 42 -115 17z"/>
<path d="M17473 12251 c-77 -48 -42 -161 49 -161 77 0 116 87 66 144 -32 36
-75 42 -115 17z"/>
<path d="M15181 13021 c-12 -21 -16 -664 -5 -720 5 -22 12 -31 25 -31 19 0 19
13 17 382 -2 282 -6 382 -15 385 -6 2 -16 -5 -22 -16z"/>
<path d="M14103 12574 c-3 -9 -2 -23 3 -31 11 -18 126 -63 160 -63 13 0 44 -7
70 -16 44 -15 94 -13 94 4 0 28 -31 44 -100 53 -41 6 -86 16 -100 24 -42 21
-100 45 -111 45 -5 0 -12 -7 -16 -16z"/>
<path d="M15920 12563 c-8 -3 -26 -10 -39 -16 -13 -7 -58 -23 -100 -37 -60
-20 -76 -29 -76 -45 0 -17 6 -19 48 -16 26 1 60 9 75 17 15 8 36 14 46 14 24
0 107 52 103 64 -4 13 -39 24 -57 19z"/>
<path d="M13633 12251 c-77 -48 -42 -161 49 -161 77 0 116 87 66 144 -32 36
-75 42 -115 17z"/>
<path d="M13873 12251 c-77 -48 -42 -161 49 -161 77 0 116 87 66 144 -32 36
-75 42 -115 17z"/>
<path d="M14113 12251 c-77 -48 -42 -161 49 -161 77 0 116 87 66 144 -32 36
-75 42 -115 17z"/>
<path d="M14353 12251 c-77 -48 -42 -161 49 -161 77 0 116 87 66 144 -32 36
-75 42 -115 17z"/>
<path d="M14593 12251 c-77 -48 -42 -161 49 -161 77 0 116 87 66 144 -32 36
-75 42 -115 17z"/>
<path d="M14833 12251 c-77 -48 -42 -161 49 -161 77 0 116 87 66 144 -32 36
-75 42 -115 17z"/>
<path d="M15073 12251 c-77 -48 -42 -161 49 -161 77 0 116 87 66 144 -32 36
-75 42 -115 17z"/>
<path d="M15313 12251 c-77 -48 -42 -161 49 -161 77 0 116 87 66 144 -32 36
-75 42 -115 17z"/>
<path d="M15553 12251 c-77 -48 -42 -161 49 -161 77 0 116 87 66 144 -32 36
-75 42 -115 17z"/>
<path d="M15793 12251 c-77 -48 -42 -161 49 -161 77 0 116 87 66 144 -32 36
-75 42 -115 17z"/>
<path d="M16033 12251 c-77 -48 -42 -161 49 -161 77 0 116 87 66 144 -32 36
-75 42 -115 17z"/>
<path d="M16273 12251 c-77 -48 -42 -161 49 -161 77 0 116 87 66 144 -32 36
-75 42 -115 17z"/>
<path d="M16513 12251 c-77 -48 -42 -161 49 -161 77 0 116 87 66 144 -32 36
-75 42 -115 17z"/>
<path d="M16753 12251 c-77 -48 -42 -161 49 -161 77 0 116 87 66 144 -32 36
-75 42 -115 17z"/>
<path d="M15870 6347 c-44 -10 -55 -16 -55 -32 0 -19 7 -20 120 -20 101 0 125
-3 152 -20 40 -24 59 -12 44 27 -8 21 -20 28 -63 38 -84 18 -139 20 -198 7z"/>
<path d="M14480 6425 c-47 -18 -65 -29 -65 -42 0 -15 7 -18 49 -15 27 1 72 9
99 17 28 8 83 15 123 15 47 0 75 4 83 13 22 28 -9 37 -118 36 -84 -1 -119 -6
-171 -24z"/>
<path d="M3560 12263 c-66 -24 -78 -117 -21 -160 9 -7 33 -13 54 -13 83 0 120
100 56 154 -29 25 -57 31 -89 19z"/>
<path d="M9794 12260 c-56 -23 -72 -103 -29 -145 55 -56 155 -16 155 61 0 62
-70 108 -126 84z"/>
<path d="M10034 12260 c-56 -23 -72 -103 -29 -145 55 -56 155 -16 155 61 0 62
-70 108 -126 84z"/>
<path d="M11961 12256 c-53 -30 -64 -89 -25 -135 64 -76 185 -9 153 86 -17 53
-78 77 -128 49z"/>
<path d="M12204 12260 c-55 -22 -71 -99 -29 -144 33 -36 95 -37 130 -1 38 37
35 95 -6 129 -31 27 -58 31 -95 16z"/>
<path d="M18204 12260 c-49 -20 -66 -77 -39 -129 16 -33 33 -41 81 -41 81 0
116 102 53 154 -31 27 -58 31 -95 16z"/>
<path d="M18444 12260 c-55 -22 -71 -99 -29 -144 33 -36 95 -37 130 -1 38 37
35 95 -6 129 -31 27 -58 31 -95 16z"/>
<path d="M10243 12236 c-28 -35 -30 -86 -4 -117 11 -13 22 -21 26 -18 3 4 5
42 3 85 l-3 79 -22 -29z"/>
<path d="M18653 12236 c-13 -16 -23 -42 -23 -60 0 -31 33 -86 45 -75 3 4 5 42
3 85 l-3 79 -22 -29z"/>
</g>
</svg>
