<svg width="24" height="24" viewBox="0 0 24 24" fill="none" xmlns="http://www.w3.org/2000/svg">
  <path d="M3 3L21 21" stroke="#5b4f49" stroke-width="2" stroke-linecap="round"></path>

  <path d="M10.6 10.6C10.22 11 10 11.48 10 12C10 13.1 10.9 14 12 14C12.52 14 13 13.78 13.4 13.4" stroke="#5b4f49" stroke-width="2" stroke-linecap="round"></path>

  <path d="M9.8 4.6C10.5 4.4 11.2 4 12 4C17.5 4 22 9 22 12C22 13.2 21.4 14.5 20.4 15.6" stroke="#5b4f49" stroke-width="2" stroke-linecap="round"></path>

  <path d="M4 8.4C3.2 9.3 2 10.5 2 12C2 15 6.5 20 12 20C13.8 20 15.5 19.5 17 18.6" stroke="#5b4f49" stroke-width="2" stroke-linecap="round"></path>
</svg>
