<svg xmlns="http://www.w3.org/2000/svg" width="26" height="26" viewBox="0 0 48 48">
  <path fill="#EA4335" d="M24 9.5c3.5 0 6.6 1.2 9.1 3.6l6.8-6.8C36.8 2.3 31 0 24 0 14.6 0 6.4 5.2 2.5 12.8l7.9 6.1C12.3 13.2 17.8 9.5 24 9.5z"></path>
  <path fill="#34A853" d="M46.1 24.5c0-1.5-.1-2.8-.4-4H24v8h12.7c-.6 3.2-2.4 5.9-5.1 7.7l7.9 6.1c4.6-4.2 7.6-10.5 7.6-17.8z"></path>
  <path fill="#4A90E2" d="M10.4 28.8C9.7 27 9.3 25 9.3 23s.4-4 1.1-5.8L2.5 11c-1.6 3-2.5 6.4-2.5 10s.9 7 2.5 10l7.9-6.2z"></path>
  <path fill="#FBBC05" d="M24 48c7 0 12.8-2.3 17.1-6.1l-7.9-6.1C30.7 37.2 27.6 38.5 24 38.5c-6.2 0-11.6-3.7-13.6-9.3l-7.9 6.1C6.4 42.8 14.6 48 24 48z"></path>
</svg>
