<svg xmlns="http://www.w3.org/2000/svg" width="26" height="26" fill="#000" viewBox="0 0 24 24">
  <path d="M16.365 1.43c0 1.14-.42 2.09-1.27 2.86-.85.77-1.85 1.2-3 1.2-.07-1.12.36-2.1 1.29-2.96.93-.86 2.03-1.3 3.28-1.3.08.07.13.11.13.2zm5.02 16.09c-.46 1.11-1.03 2.1-1.71 2.96-.89 1.12-1.82 1.69-2.77 1.69-.73 0-1.62-.27-2.68-.82-1.06-.54-1.98-.82-2.75-.82-.82 0-1.77.28-2.84.82-1.07.55-1.9.83-2.49.83-.93 0-1.86-.55-2.79-1.66-.76-.93-1.38-2.01-1.84-3.25-.5-1.37-.75-2.69-.75-3.96 0-1.47.32-2.74.97-3.8.65-1.07 1.52-1.6 2.61-1.6.51 0 1.27.26 2.28.78 1.01.52 1.66.79 1.96.79.22 0 .97-.31 2.23-.92 1.19-.55 2.2-.78 3.03-.7 2.24.18 3.93 1.15 5.05 2.93-2.01 1.21-3 2.91-3 5.09 0 1.7.62 3.12 1.87 4.26.56.52 1.17.92 1.84 1.21l-.01.01z"></path>
</svg>
